<svg xmlns="http://www.w3.org/2000/svg" viewBox="0 0 566.93 117.53"><title>logo_creme_1</title><g id="Capa_2" data-name="Capa 2"><g id="Capa_1-2" data-name="Capa 1"><path d="M161.8,59.53h-1.53V35.1c-11.91,3.82-27,3.06-39.69,3.06v3.05H132.8v67.16l-3.06,3.06H104.06l4.32-48.85h-1.53c-7.63,33.28-22,51.29-40.6,51.29-20,0-32.67-20.91-32.67-55.11,0-34,13.13-54.95,34-54.95,17.1,0,29.31,13.89,36.17,42h1.53L100.74,3.05h-3c-15.87,0-28.09-3-41.21-3C20.91,0,0,22.28,0,58.76s19.69,58.77,55.56,58.77c13.28,0,25.19-3,45.18-3h88.53v-3H164.85l-3-3.06V67.16a6.11,6.11,0,0,1,6.1-6.11h25.95L196.9,35.1l-12.21.77C173.24,36.63,164.54,45.64,161.8,59.53Z"/><path d="M287.22,77.84c-2,19.85-13.28,33.59-29,33.59-16.49,0-26.1-15.27-26.1-34.66V73.26H284l4.58-4.57c0-21.83-15.87-33.59-40.9-33.59-28.85,0-46.1,15.73-46.1,41.22s17.4,41.21,46.1,41.21c27.32,0,39.53-14.19,42.43-38.16ZM245.85,38.16c7.33,0,12.22,11,12.22,29l-3,3H232.27C233,50.22,238.07,38.16,245.85,38.16Z"/><path d="M510.47,111.43c-16.49,0-26.1-15.27-26.1-34.66V73.26h51.89l4.58-4.57c0-21.83-15.87-33.59-40.9-33.59-28.85,0-46.1,15.73-46.1,41.22s17.4,41.21,46.1,41.21c27.32,0,39.53-14.19,42.43-38.16l-2.9-1.53C537.49,97.69,526.19,111.43,510.47,111.43ZM498.1,38.16c7.33,0,12.22,11,12.22,29l-3.05,3H484.52C485.28,50.22,490.32,38.16,498.1,38.16Z"/><path d="M438.13,108.37V62.58c0-17.1-9.92-27.48-25.94-27.48-12.07,0-22.45,5.19-27.48,13.74h-1.53c-2.59-8.55-11.91-13.74-24.42-13.74-11.3,0-21.83,5.19-27.48,13.74h-1.52V35.1c-12.06,3.06-26.57,3.06-38.16,3.06v3.05h10.68v67.16l-3,3.06h-9.16v3H450.34v-3h-9.16Zm-82.43,0-3.05,3.06H334.34l-3.06-3.06V62.58c0-11.29,5.19-18.31,13.74-18.31,6.56,0,10.68,5.18,10.68,13.73Zm53.43,0-3.05,3.06H387.76l-3.05-3.06V62.58c0-11.29,5.19-18.31,13.73-18.31,6.57,0,10.69,5.18,10.69,13.73Z"/><path d="M559.56,19.27c0-3-1.73-4.51-5.42-4.51h-6.21V30.94H550V23.79h3.21l4.48,7.15h2.45l-4.73-7.19C557.68,23.43,559.56,22.16,559.56,19.27ZM550,22.05V16.49h3.54c2,0,3.9.54,3.9,2.78s-1.88,2.78-3.9,2.78Z"/><path d="M553.13,9.12a13.73,13.73,0,1,0,13.8,13.73A13.73,13.73,0,0,0,553.13,9.12Zm0,25.58a11.48,11.48,0,0,1-11.56-11.85,11.56,11.56,0,1,1,23.12,0A11.48,11.48,0,0,1,553.13,34.7Z"/><path d="M275.44,21.56c-30-1.66-43.83-5.12-60.48-13v8.06c15.87,6.79,30.44,6.91,60.48,6.91Z"/></g></g></svg>