<?xml version="1.0" standalone="no"?>
<!DOCTYPE svg PUBLIC "-//W3C//DTD SVG 1.1//EN" "http://www.w3.org/Graphics/SVG/1.1/DTD/svg11.dtd" >
<svg xmlns="http://www.w3.org/2000/svg" xmlns:xlink="http://www.w3.org/1999/xlink" version="1.1">
<metadata>
Created by FontForge 20170910 at Mon Jan 21 19:45:38 2019
 By Jimmy Wärting
Copyright \(c\) 2018 by Alexander Slobzheninov. All rights reserved.
</metadata>
<defs>
<font id="Grafier-RegularText" horiz-adv-x="750" >
  <font-face 
    font-family="Grafier Text"
    font-weight="400"
    font-stretch="normal"
    units-per-em="1000"
    panose-1="0 0 5 0 0 0 0 0 0 0"
    ascent="750"
    descent="-250"
    x-height="500"
    cap-height="730"
    bbox="-429 -280 1304 1000"
    underline-thickness="50"
    underline-position="-100"
    stemh="40"
    stemv="90"
    unicode-range="U+0020-25CA"
  />
<missing-glyph horiz-adv-x="0" 
 />
    <glyph glyph-name=".notdef" horiz-adv-x="0" 
 />
    <glyph glyph-name="space" unicode=" " horiz-adv-x="313" 
 />
    <glyph glyph-name="A" unicode="A" 
d="M5 0v40h72l243 630l-20 20h-150v40h260l252 -690h83v-40h-740zM240 310h215l-100 290h-10zM145 60l20 -20h360l20 20l-73 200h-251z" />
    <glyph glyph-name="Aacute" unicode="&#xc1;" 
d="M480 900l-210 -110l-17 18l147 172h80v-80zM5 0v40h72l243 630l-20 20h-150v40h260l252 -690h83v-40h-740zM240 310h215l-100 290h-10zM145 60l20 -20h360l20 20l-73 200h-251z" />
    <glyph glyph-name="Abreve" unicode="&#x102;" 
d="M195 960c0 -43 29 -81 140 -81s140 38 140 81h20c0 -105 -49 -161 -160 -161s-160 56 -160 161h20zM5 0v40h72l243 630l-20 20h-150v40h260l252 -690h83v-40h-740zM240 310h215l-100 290h-10zM145 60l20 -20h360l20 20l-73 200h-251z" />
    <glyph glyph-name="Acircumflex" unicode="&#xc2;" 
d="M345 909l-160 -119l-20 17l135 172h90l135 -172l-20 -17zM662 40h83v-40h-740v40h72l243 630l-20 20h-150v40h260zM345 600l-105 -290h215l-100 290h-10zM525 40l20 20l-73 200h-251l-76 -200l20 -20h360z" />
    <glyph glyph-name="Adieresis" unicode="&#xc4;" 
d="M185 860v120h120v-120h-120zM365 860v120h120v-120h-120zM5 0v40h72l243 630l-20 20h-150v40h260l252 -690h83v-40h-740zM240 310h215l-100 290h-10zM145 60l20 -20h360l20 20l-73 200h-251z" />
    <glyph glyph-name="Agrave" unicode="&#xc0;" 
d="M190 900v80h80l147 -172l-17 -18zM5 0v40h72l243 630l-20 20h-150v40h260l252 -690h83v-40h-740zM240 310h215l-100 290h-10zM145 60l20 -20h360l20 20l-73 200h-251z" />
    <glyph glyph-name="Amacron" unicode="&#x100;" 
d="M175 840v80h320v-80h-320zM5 0v40h72l243 630l-20 20h-150v40h260l252 -690h83v-40h-740zM240 310h215l-100 290h-10zM145 60l20 -20h360l20 20l-73 200h-251z" />
    <glyph glyph-name="Aogonek" unicode="&#x104;" 
d="M745 0h-224c-36 -37 -55 -60 -55 -108s26 -82 66 -82c39 0 63 19 80 46l20 -20c-10 -29 -39 -96 -132 -96c-94 0 -130 84 -109 169l100 91h-486v40h72l243 630l-20 20h-150v40h260l252 -690h83v-40zM345 600l-105 -290h215l-100 290h-10zM165 40h360l20 20l-73 200h-251
l-76 -200z" />
    <glyph glyph-name="Aring" unicode="&#xc5;" 
d="M335 780c-61 0 -110 49 -110 111c0 60 49 109 110 109s110 -49 110 -109c0 -62 -49 -111 -110 -111zM335 820c39 0 70 31 70 71c0 38 -31 69 -70 69s-70 -31 -70 -69c0 -40 31 -71 70 -71zM5 0v40h72l243 630l-20 20h-150v40h260l252 -690h83v-40h-740zM240 310h215
l-100 290h-10zM145 60l20 -20h360l20 20l-73 200h-251z" />
    <glyph glyph-name="Atilde" unicode="&#xc3;" 
d="M135 839c16 47 58 121 128 121c44 0 71 -18 99 -36c28 -17 57 -35 104 -35l48 71l20 -10c-16 -47 -58 -121 -128 -121c-44 0 -71 17 -98 35c-28 18 -57 36 -105 36l-48 -71zM5 0v40h72l243 630l-20 20h-150v40h260l252 -690h83v-40h-740zM240 310h215l-100 290h-10z
M145 60l20 -20h360l20 20l-73 200h-251z" />
    <glyph glyph-name="AE" unicode="&#xc6;" horiz-adv-x="982" 
d="M0 0v40h72l329 630l-20 20h-150v40h666l30 -190h-30l-80 150h-220l-20 -20v-270h160l40 120h30v-290h-30l-40 120h-160v-290l20 -20h250l80 150h30l-30 -190h-927zM321 400h156v265h-15zM146 60l20 -20h291l20 20v290h-179z" />
    <glyph glyph-name="B" unicode="B" horiz-adv-x="730" 
d="M45 0v40h80l20 20v610l-20 20h-80v40h290c167 0 270 -65 270 -163c0 -73 -57 -136 -150 -167v-10c143 -15 230 -91 230 -197c0 -120 -110 -193 -290 -193h-350zM245 410h90c99 0 160 52 160 136c0 83 -61 134 -160 134h-70l-20 -20v-250zM265 50h130
c112 0 180 59 180 155s-68 155 -180 155h-150v-290z" />
    <glyph glyph-name="C" unicode="C" horiz-adv-x="790" 
d="M423 -20c-230 0 -363 148 -363 385c0 235 140 385 365 385c82 0 121 -20 225 -20h20l40 -270h-40c-34 169 -94 245 -238 245c-155 0 -252 -134 -252 -340c0 -209 98 -340 259 -340c149 0 212 73 251 255h40l-40 -280h-20c-131 0 -163 -20 -247 -20z" />
    <glyph glyph-name="Cacute" unicode="&#x106;" horiz-adv-x="790" 
d="M570 900l-210 -110l-17 18l147 172h80v-80zM423 -20c-230 0 -363 148 -363 385c0 235 140 385 365 385c82 0 121 -20 225 -20h20l40 -270h-40c-34 169 -94 245 -238 245c-155 0 -252 -134 -252 -340c0 -209 98 -340 259 -340c149 0 212 73 251 255h40l-40 -280h-20
c-131 0 -163 -20 -247 -20z" />
    <glyph glyph-name="Ccaron" unicode="&#x10c;" horiz-adv-x="790" 
d="M380 791l-135 172l20 17l160 -119l160 119l20 -17l-135 -172h-90zM690 280h40l-40 -280h-20c-131 0 -163 -20 -247 -20c-230 0 -363 148 -363 385c0 235 140 385 365 385c82 0 121 -20 225 -20h20l40 -270h-40c-34 169 -94 245 -238 245c-155 0 -252 -134 -252 -340
c0 -209 98 -340 259 -340c149 0 212 73 251 255z" />
    <glyph glyph-name="Ccedilla" unicode="&#xc7;" horiz-adv-x="790" 
d="M690 280h40l-40 -280h-20c-131 0 -163 -20 -247 -20h-12l-6 -30l10 -10c53 0 140 12 140 -76c0 -61 -59 -94 -180 -94h-71l10 50h146c13 9 25 30 25 45c0 37 -33 35 -110 35l-17 20l21 62c-203 18 -319 162 -319 383c0 235 140 385 365 385c82 0 121 -20 225 -20h20
l40 -270h-40c-34 169 -94 245 -238 245c-155 0 -252 -134 -252 -340c0 -209 98 -340 259 -340c149 0 212 73 251 255z" />
    <glyph glyph-name="Cdotaccent" unicode="&#x10a;" horiz-adv-x="790" 
d="M365 860v120h120v-120h-120zM423 -20c-230 0 -363 148 -363 385c0 235 140 385 365 385c82 0 121 -20 225 -20h20l40 -270h-40c-34 169 -94 245 -238 245c-155 0 -252 -134 -252 -340c0 -209 98 -340 259 -340c149 0 212 73 251 255h40l-40 -280h-20
c-131 0 -163 -20 -247 -20z" />
    <glyph glyph-name="D" unicode="D" horiz-adv-x="845" 
d="M45 0v40h80l20 20v610l-20 20h-80v40h350c242 0 390 -139 390 -365s-148 -365 -390 -365h-350zM265 50h130c174 0 270 120 270 315s-96 315 -270 315h-130l-20 -20v-590z" />
    <glyph glyph-name="Eth" unicode="&#xd0;" horiz-adv-x="845" 
d="M395 730c242 0 390 -139 390 -365s-148 -365 -390 -365h-350v40h80l20 20v320h-100v40h100v250l-20 20h-80v40h350zM395 50c174 0 270 120 270 315s-96 315 -270 315h-130l-20 -20v-240h195v-40h-195v-310l20 -20h130z" />
    <glyph glyph-name="Dcaron" unicode="&#x10e;" horiz-adv-x="845" 
d="M333 791l-135 172l20 17l160 -119l160 119l20 -17l-135 -172h-90zM395 730c242 0 390 -139 390 -365s-148 -365 -390 -365h-350v40h80l20 20v610l-20 20h-80v40h350zM395 50c174 0 270 120 270 315s-96 315 -270 315h-130l-20 -20v-590l20 -20h130z" />
    <glyph glyph-name="Dcroat" unicode="&#x110;" horiz-adv-x="845" 
d="M395 730c242 0 390 -139 390 -365s-148 -365 -390 -365h-350v40h80l20 20v320h-100v40h100v250l-20 20h-80v40h350zM395 50c174 0 270 120 270 315s-96 315 -270 315h-130l-20 -20v-240h195v-40h-195v-310l20 -20h130z" />
    <glyph glyph-name="E" unicode="E" horiz-adv-x="670" 
d="M45 0v40h60l20 20v610l-20 20h-60v40h540l30 -230h-30l-80 180h-260l-20 -20v-250h150l40 140h30v-330h-30l-40 140h-150v-290l20 -20h290l80 180h30l-30 -230h-570z" />
    <glyph glyph-name="Eacute" unicode="&#xc9;" horiz-adv-x="670" 
d="M475 900l-210 -110l-17 18l147 172h80v-80zM45 0v40h60l20 20v610l-20 20h-60v40h540l30 -230h-30l-80 180h-260l-20 -20v-250h150l40 140h30v-330h-30l-40 140h-150v-290l20 -20h290l80 180h30l-30 -230h-570z" />
    <glyph glyph-name="Ecaron" unicode="&#x11a;" horiz-adv-x="670" 
d="M285 791l-135 172l20 17l160 -119l160 119l20 -17l-135 -172h-90zM615 230h30l-30 -230h-570v40h60l20 20v610l-20 20h-60v40h540l30 -230h-30l-80 180h-260l-20 -20v-250h150l40 140h30v-330h-30l-40 140h-150v-290l20 -20h290z" />
    <glyph glyph-name="Ecircumflex" unicode="&#xca;" horiz-adv-x="670" 
d="M340 909l-160 -119l-20 17l135 172h90l135 -172l-20 -17zM615 230h30l-30 -230h-570v40h60l20 20v610l-20 20h-60v40h540l30 -230h-30l-80 180h-260l-20 -20v-250h150l40 140h30v-330h-30l-40 140h-150v-290l20 -20h290z" />
    <glyph glyph-name="Edieresis" unicode="&#xcb;" horiz-adv-x="670" 
d="M180 860v120h120v-120h-120zM360 860v120h120v-120h-120zM45 0v40h60l20 20v610l-20 20h-60v40h540l30 -230h-30l-80 180h-260l-20 -20v-250h150l40 140h30v-330h-30l-40 140h-150v-290l20 -20h290l80 180h30l-30 -230h-570z" />
    <glyph glyph-name="Edotaccent" unicode="&#x116;" horiz-adv-x="670" 
d="M270 860v120h120v-120h-120zM45 0v40h60l20 20v610l-20 20h-60v40h540l30 -230h-30l-80 180h-260l-20 -20v-250h150l40 140h30v-330h-30l-40 140h-150v-290l20 -20h290l80 180h30l-30 -230h-570z" />
    <glyph glyph-name="Egrave" unicode="&#xc8;" horiz-adv-x="670" 
d="M185 900v80h80l147 -172l-17 -18zM45 0v40h60l20 20v610l-20 20h-60v40h540l30 -230h-30l-80 180h-260l-20 -20v-250h150l40 140h30v-330h-30l-40 140h-150v-290l20 -20h290l80 180h30l-30 -230h-570z" />
    <glyph glyph-name="Emacron" unicode="&#x112;" horiz-adv-x="670" 
d="M170 840v80h320v-80h-320zM45 0v40h60l20 20v610l-20 20h-60v40h540l30 -230h-30l-80 180h-260l-20 -20v-250h150l40 140h30v-330h-30l-40 140h-150v-290l20 -20h290l80 180h30l-30 -230h-570z" />
    <glyph glyph-name="Eogonek" unicode="&#x118;" horiz-adv-x="670" 
d="M632 -144l20 -20c-10 -29 -39 -96 -132 -96c-94 0 -130 84 -109 169l100 91h-466v40h60l20 20v610l-20 20h-60v40h540l30 -230h-30l-80 180h-260l-20 -20v-250h150l40 140h30v-330h-30l-40 140h-150v-290l20 -20h290l80 180h30l-30 -230h-74c-36 -37 -55 -60 -55 -108
s26 -82 66 -82c39 0 63 19 80 46z" />
    <glyph glyph-name="F" unicode="F" horiz-adv-x="640" 
d="M45 0v40h60l20 20v610l-20 20h-60v40h540l30 -290h-30l-80 240h-260l-20 -20v-280h150l40 170h30v-390h-30l-40 170h-150v-270l20 -20h180v-40h-380z" />
    <glyph glyph-name="G" unicode="G" horiz-adv-x="825" 
d="M398 -20c-205 0 -340 148 -340 390c0 236 158 380 370 380c79 0 118 -20 222 -20h20l40 -270h-40c-34 159 -114 245 -234 245c-148 0 -258 -129 -258 -335c0 -210 87 -340 240 -340c81 0 200 39 200 140v110l-20 20h-310v40h510v-40h-60l-20 -20v-220
c-60 0 -94 -15 -119 -28c-71 -37 -143 -52 -201 -52z" />
    <glyph glyph-name="Gbreve" unicode="&#x11e;" horiz-adv-x="825" 
d="M288 960c0 -43 29 -81 140 -81s140 38 140 81h20c0 -105 -49 -161 -160 -161s-160 56 -160 161h20zM398 -20c-205 0 -340 148 -340 390c0 236 158 380 370 380c79 0 118 -20 222 -20h20l40 -270h-40c-34 159 -114 245 -234 245c-148 0 -258 -129 -258 -335
c0 -210 87 -340 240 -340c81 0 200 39 200 140v110l-20 20h-310v40h510v-40h-60l-20 -20v-220c-60 0 -94 -15 -119 -28c-71 -37 -143 -52 -201 -52z" />
    <glyph glyph-name="uni0122" unicode="&#x122;" horiz-adv-x="825" 
d="M398 -20c-205 0 -340 148 -340 390c0 236 158 380 370 380c79 0 118 -20 222 -20h20l40 -270h-40c-34 159 -114 245 -234 245c-148 0 -258 -129 -258 -335c0 -210 87 -340 240 -340c81 0 200 39 200 140v110l-20 20h-310v40h510v-40h-60l-20 -20v-220
c-60 0 -94 -15 -119 -28c-71 -37 -143 -52 -201 -52zM368 -280l-11 35c50 13 81 40 81 95h-60v90h110v-70c0 -91 -36 -124 -120 -150z" />
    <glyph glyph-name="Gdotaccent" unicode="&#x120;" horiz-adv-x="825" 
d="M368 860v120h120v-120h-120zM398 -20c-205 0 -340 148 -340 390c0 236 158 380 370 380c79 0 118 -20 222 -20h20l40 -270h-40c-34 159 -114 245 -234 245c-148 0 -258 -129 -258 -335c0 -210 87 -340 240 -340c81 0 200 39 200 140v110l-20 20h-310v40h510v-40h-60
l-20 -20v-220c-60 0 -94 -15 -119 -28c-71 -37 -143 -52 -201 -52z" />
    <glyph glyph-name="H" unicode="H" horiz-adv-x="880" 
d="M45 0v40h80l20 20v610l-20 20h-80v40h790v-40h-80l-20 -20v-610l20 -20h80v-40h-790zM245 410h390v260l-20 20h-350l-20 -20v-260zM245 60l20 -20h350l20 20v300h-390v-300z" />
    <glyph glyph-name="Hbar" unicode="&#x126;" horiz-adv-x="880" 
d="M755 690l-20 -20v-94h100v-40h-100v-476l20 -20h80v-40h-790v40h80l20 20v476h-100v40h100v94l-20 20h-80v40h790v-40h-80zM245 576h390v94l-20 20h-350l-20 -20v-94zM635 410v126h-390v-126h390zM635 60v300h-390v-300l20 -20h350z" />
    <glyph glyph-name="I" unicode="I" horiz-adv-x="390" 
d="M45 0v40h80l20 20v610l-20 20h-80v40h300v-40h-80l-20 -20v-610l20 -20h80v-40h-300z" />
    <glyph glyph-name="Iacute" unicode="&#xcd;" horiz-adv-x="390" 
d="M340 900l-210 -110l-17 18l147 172h80v-80zM45 0v40h80l20 20v610l-20 20h-80v40h300v-40h-80l-20 -20v-610l20 -20h80v-40h-300z" />
    <glyph glyph-name="Icircumflex" unicode="&#xce;" horiz-adv-x="390" 
d="M250 979l135 -172l-20 -17l-160 119l-160 -119l-20 17l135 172h90zM45 690v40h300v-40h-80l-20 -20v-610l20 -20h80v-40h-300v40h80l20 20v610l-20 20h-80z" />
    <glyph glyph-name="Idieresis" unicode="&#xcf;" horiz-adv-x="390" 
d="M45 860v120h120v-120h-120zM225 860v120h120v-120h-120zM45 0v40h80l20 20v610l-20 20h-80v40h300v-40h-80l-20 -20v-610l20 -20h80v-40h-300z" />
    <glyph glyph-name="Idotaccent" unicode="&#x130;" horiz-adv-x="390" 
d="M135 860v120h120v-120h-120zM45 0v40h80l20 20v610l-20 20h-80v40h300v-40h-80l-20 -20v-610l20 -20h80v-40h-300z" />
    <glyph glyph-name="Igrave" unicode="&#xcc;" horiz-adv-x="390" 
d="M50 900v80h80l147 -172l-17 -18zM45 0v40h80l20 20v610l-20 20h-80v40h300v-40h-80l-20 -20v-610l20 -20h80v-40h-300z" />
    <glyph glyph-name="Imacron" unicode="&#x12a;" horiz-adv-x="390" 
d="M35 840v80h320v-80h-320zM45 0v40h80l20 20v610l-20 20h-80v40h300v-40h-80l-20 -20v-610l20 -20h80v-40h-300z" />
    <glyph glyph-name="Iogonek" unicode="&#x12e;" horiz-adv-x="390" 
d="M265 690l-20 -20v-610l20 -20h80v-40h-129c-36 -37 -55 -60 -55 -108s26 -82 66 -82c39 0 63 19 80 46l20 -20c-10 -29 -39 -96 -132 -96c-94 0 -130 84 -109 169l100 91h-141v40h80l20 20v610l-20 20h-80v40h300v-40h-80z" />
    <glyph glyph-name="J" unicode="J" horiz-adv-x="340" 
d="M-85 -250l20 110h160l20 20v790l-20 20h-60v40h260v-40h-60l-20 -20v-759l-90 -91c-38 -38 -88 -63 -130 -65z" />
    <glyph glyph-name="K" unicode="K" 
d="M45 0v40h80l20 20v610l-20 20h-80v40h640v-40h-73l-211 -230l254 -400l30 -20h60v-40h-700zM245 361l280 309l-10 20h-250l-20 -20v-309zM245 60l20 -20h250l10 20l-197 316l-83 -95v-221z" />
    <glyph glyph-name="uni0136" unicode="&#x136;" 
d="M45 0v40h80l20 20v610l-20 20h-80v40h640v-40h-73l-211 -230l254 -400l30 -20h60v-40h-700zM245 361l280 309l-10 20h-250l-20 -20v-309zM245 60l20 -20h250l10 20l-197 316l-83 -95v-221zM310 -280l-11 35c50 13 81 40 81 95h-60v90h110v-70c0 -91 -36 -124 -120 -150z
" />
    <glyph glyph-name="L" unicode="L" horiz-adv-x="650" 
d="M45 0v40h60l20 20v610l-20 20h-60v40h260v-40h-60l-20 -20v-600l20 -20h280l90 170h30l-30 -220h-570z" />
    <glyph glyph-name="Lacute" unicode="&#x139;" horiz-adv-x="650" 
d="M325 900l-210 -110l-17 18l147 172h80v-80zM45 0v40h60l20 20v610l-20 20h-60v40h260v-40h-60l-20 -20v-600l20 -20h280l90 170h30l-30 -220h-570z" />
    <glyph glyph-name="Lcaron" unicode="&#x13d;" horiz-adv-x="660" 
d="M45 0v40h60l20 20v610l-20 20h-60v40h260v-40h-60l-20 -20v-600l20 -20h280l90 170h30l-30 -220h-570zM412 459l-21 35c50 23 81 61 81 126h-60v110h110v-90c0 -91 -36 -145 -110 -181z" />
    <glyph glyph-name="uni013B" unicode="&#x13b;" horiz-adv-x="650" 
d="M45 0v40h60l20 20v610l-20 20h-60v40h260v-40h-60l-20 -20v-600l20 -20h280l90 170h30l-30 -220h-570zM285 -280l-11 35c50 13 81 40 81 95h-60v90h110v-70c0 -91 -36 -124 -120 -150z" />
    <glyph glyph-name="Lslash" unicode="&#x141;" horiz-adv-x="660" 
d="M615 220h30l-30 -220h-570v40h60l20 20v266l-80 -38l-15 35l95 45v302l-20 20h-60v40h260v-40h-60l-20 -20v-255l300 141l15 -35l-315 -148v-303l20 -20h280z" />
    <glyph glyph-name="M" unicode="M" horiz-adv-x="1040" 
d="M45 0v40h80l20 20v610l-20 20h-80v40h240l230 -470h10l250 470h220v-40h-80l-20 -20v-610l20 -20h80v-40h-950zM205 60l20 -20h550l20 20v570h-10l-280 -530h-20l-270 520h-10v-560z" />
    <glyph glyph-name="N" unicode="N" horiz-adv-x="870" 
d="M45 0v40h80l20 20v610l-20 20h-80v40h200l410 -550h10v490l-20 20h-160v40h340v-40h-80l-20 -20v-670h-70l-440 590h-10v-530l20 -20h160v-40h-340z" />
    <glyph glyph-name="Nacute" unicode="&#x143;" horiz-adv-x="870" 
d="M570 900l-210 -110l-17 18l147 172h80v-80zM45 0v40h80l20 20v610l-20 20h-80v40h200l410 -550h10v490l-20 20h-160v40h340v-40h-80l-20 -20v-670h-70l-440 590h-10v-530l20 -20h160v-40h-340z" />
    <glyph glyph-name="Ncaron" unicode="&#x147;" horiz-adv-x="870" 
d="M380 791l-135 172l20 17l160 -119l160 119l20 -17l-135 -172h-90zM485 730h340v-40h-80l-20 -20v-670h-70l-440 590h-10v-530l20 -20h160v-40h-340v40h80l20 20v610l-20 20h-80v40h200l410 -550h10v490l-20 20h-160v40z" />
    <glyph glyph-name="uni0145" unicode="&#x145;" horiz-adv-x="870" 
d="M45 0v40h80l20 20v610l-20 20h-80v40h200l410 -550h10v490l-20 20h-160v40h340v-40h-80l-20 -20v-670h-70l-440 590h-10v-530l20 -20h160v-40h-340zM410 -280l-11 35c50 13 81 40 81 95h-60v90h110v-70c0 -91 -36 -124 -120 -150z" />
    <glyph glyph-name="Eng" unicode="&#x14a;" horiz-adv-x="870" 
d="M485 730h340v-40h-80l-20 -20v-670c0 -211 -41 -240 -140 -245l-100 -5l20 100h60c73 0 84 38 90 150l-440 590h-10v-530l20 -20h160v-40h-340v40h80l20 20v610l-20 20h-80v40h200l410 -550h10v490l-20 20h-160v40z" />
    <glyph glyph-name="Ntilde" unicode="&#xd1;" horiz-adv-x="870" 
d="M225 839c16 47 58 121 128 121c44 0 71 -18 99 -36c28 -17 57 -35 104 -35l48 71l20 -10c-16 -47 -58 -121 -128 -121c-44 0 -71 17 -98 35c-28 18 -57 36 -105 36l-48 -71zM45 0v40h80l20 20v610l-20 20h-80v40h200l410 -550h10v490l-20 20h-160v40h340v-40h-80l-20 -20
v-670h-70l-440 590h-10v-530l20 -20h160v-40h-340z" />
    <glyph glyph-name="O" unicode="O" horiz-adv-x="890" 
d="M445 -20c-218 0 -385 167 -385 385c0 225 160 385 385 385c224 0 385 -160 385 -385c0 -218 -167 -385 -385 -385zM445 40c165 0 265 123 265 325s-100 325 -265 325s-265 -123 -265 -325s100 -325 265 -325z" />
    <glyph glyph-name="Oacute" unicode="&#xd3;" horiz-adv-x="890" 
d="M590 900l-210 -110l-17 18l147 172h80v-80zM445 -20c-218 0 -385 167 -385 385c0 225 160 385 385 385c224 0 385 -160 385 -385c0 -218 -167 -385 -385 -385zM445 40c165 0 265 123 265 325s-100 325 -265 325s-265 -123 -265 -325s100 -325 265 -325z" />
    <glyph glyph-name="Ocircumflex" unicode="&#xd4;" horiz-adv-x="890" 
d="M455 909l-160 -119l-20 17l135 172h90l135 -172l-20 -17zM445 750c224 0 385 -160 385 -385c0 -218 -167 -385 -385 -385s-385 167 -385 385c0 225 160 385 385 385zM445 40c165 0 265 123 265 325s-100 325 -265 325s-265 -123 -265 -325s100 -325 265 -325z" />
    <glyph glyph-name="Odieresis" unicode="&#xd6;" horiz-adv-x="890" 
d="M295 860v120h120v-120h-120zM475 860v120h120v-120h-120zM445 -20c-218 0 -385 167 -385 385c0 225 160 385 385 385c224 0 385 -160 385 -385c0 -218 -167 -385 -385 -385zM445 40c165 0 265 123 265 325s-100 325 -265 325s-265 -123 -265 -325s100 -325 265 -325z" />
    <glyph glyph-name="Ograve" unicode="&#xd2;" horiz-adv-x="890" 
d="M300 900v80h80l147 -172l-17 -18zM445 -20c-218 0 -385 167 -385 385c0 225 160 385 385 385c224 0 385 -160 385 -385c0 -218 -167 -385 -385 -385zM445 40c165 0 265 123 265 325s-100 325 -265 325s-265 -123 -265 -325s100 -325 265 -325z" />
    <glyph glyph-name="Ohungarumlaut" unicode="&#x150;" horiz-adv-x="890" 
d="M490 900l-150 -130l-20 15l90 195h80v-80zM670 900l-150 -130l-20 15l90 195h80v-80zM445 -20c-218 0 -385 167 -385 385c0 225 160 385 385 385c224 0 385 -160 385 -385c0 -218 -167 -385 -385 -385zM445 40c165 0 265 123 265 325s-100 325 -265 325
s-265 -123 -265 -325s100 -325 265 -325z" />
    <glyph glyph-name="Omacron" unicode="&#x14c;" horiz-adv-x="890" 
d="M285 840v80h320v-80h-320zM445 -20c-218 0 -385 167 -385 385c0 225 160 385 385 385c224 0 385 -160 385 -385c0 -218 -167 -385 -385 -385zM445 40c165 0 265 123 265 325s-100 325 -265 325s-265 -123 -265 -325s100 -325 265 -325z" />
    <glyph glyph-name="Oslash" unicode="&#xd8;" horiz-adv-x="890" 
d="M735 627c60 -67 95 -157 95 -262c0 -218 -167 -385 -385 -385c-101 0 -192 36 -259 97l-77 -77l-28 29l76 76c-61 68 -97 158 -97 260c0 225 160 385 385 385c104 0 195 -35 262 -95l75 75l28 -28zM180 365c0 -77 15 -143 42 -195l424 424c-45 62 -114 96 -201 96
c-165 0 -265 -123 -265 -325zM445 40c165 0 265 123 265 325c0 77 -15 143 -42 195l-424 -425c46 -61 114 -95 201 -95z" />
    <glyph glyph-name="Otilde" unicode="&#xd5;" horiz-adv-x="890" 
d="M245 839c16 47 58 121 128 121c44 0 71 -18 99 -36c28 -17 57 -35 104 -35l48 71l20 -10c-16 -47 -58 -121 -128 -121c-44 0 -71 17 -98 35c-28 18 -57 36 -105 36l-48 -71zM445 -20c-218 0 -385 167 -385 385c0 225 160 385 385 385c224 0 385 -160 385 -385
c0 -218 -167 -385 -385 -385zM445 40c165 0 265 123 265 325s-100 325 -265 325s-265 -123 -265 -325s100 -325 265 -325z" />
    <glyph glyph-name="OE" unicode="&#x152;" horiz-adv-x="1329" 
d="M1274 190h30l-30 -190h-540v40h20l20 20v100c-67 -109 -187 -180 -329 -180c-218 0 -385 167 -385 385c0 225 160 385 385 385c145 0 263 -67 329 -175v95l-20 20h-20v40h510l30 -190h-30l-80 140h-260l-20 -20v-250h150l40 120h30v-290h-30l-40 120h-150v-290l20 -20
h290zM445 40c165 0 265 123 265 325s-100 325 -265 325s-265 -123 -265 -325s100 -325 265 -325z" />
    <glyph glyph-name="P" unicode="P" horiz-adv-x="665" 
d="M45 0v40h80l20 20v610l-20 20h-80v40h320c170 0 275 -77 275 -200c0 -124 -105 -200 -275 -200h-120v-270l20 -20h200v-40h-420zM245 380h120c102 0 165 57 165 150c0 92 -63 150 -165 150h-100l-20 -20v-280z" />
    <glyph glyph-name="Thorn" unicode="&#xde;" horiz-adv-x="665" 
d="M45 0v40h80l20 20v610l-20 20h-80v40h300v-40h-80l-20 -20v-90h120c170 0 275 -77 275 -200c0 -124 -105 -200 -275 -200h-120v-120l20 -20h200v-40h-420zM245 230h120c102 0 165 57 165 150c0 92 -63 150 -165 150h-120v-300z" />
    <glyph glyph-name="Q" unicode="Q" horiz-adv-x="900" 
d="M810 -30h30l-30 -170c-32 -31 -78 -50 -120 -50c-83 0 -133 35 -185 68c-47 30 -94 59 -166 62l-109 -70l-30 40l209 132c-200 17 -349 177 -349 383c0 225 160 385 385 385c224 0 385 -160 385 -385c0 -166 -97 -303 -240 -358h3c-63 -31 -137 -44 -193 -87l10 -10
c75 28 118 -4 172 -37c43 -26 92 -53 168 -53zM180 365c0 -202 100 -325 265 -325s265 123 265 325s-100 325 -265 325s-265 -123 -265 -325z" />
    <glyph glyph-name="R" unicode="R" horiz-adv-x="780" 
d="M45 0v40h80l20 20v610l-20 20h-80v40h320c170 0 275 -73 275 -190c0 -101 -77 -169 -207 -186l262 -314l80 -10v-30h-730zM245 400h120c102 0 165 53 165 140c0 86 -63 140 -165 140h-100l-20 -20v-260zM245 60l20 -20h294l-244 310h-70v-290z" />
    <glyph glyph-name="Racute" unicode="&#x154;" horiz-adv-x="780" 
d="M515 900l-210 -110l-17 18l147 172h80v-80zM45 0v40h80l20 20v610l-20 20h-80v40h320c170 0 275 -73 275 -190c0 -101 -77 -169 -207 -186l262 -314l80 -10v-30h-730zM245 400h120c102 0 165 53 165 140c0 86 -63 140 -165 140h-100l-20 -20v-260zM245 60l20 -20h294
l-244 310h-70v-290z" />
    <glyph glyph-name="Rcaron" unicode="&#x158;" horiz-adv-x="780" 
d="M325 791l-135 172l20 17l160 -119l160 119l20 -17l-135 -172h-90zM695 40l80 -10v-30h-730v40h80l20 20v610l-20 20h-80v40h320c170 0 275 -73 275 -190c0 -101 -77 -169 -207 -186zM245 660v-260h120c102 0 165 53 165 140c0 86 -63 140 -165 140h-100zM265 40h294
l-244 310h-70v-290z" />
    <glyph glyph-name="uni0156" unicode="&#x156;" horiz-adv-x="780" 
d="M45 0v40h80l20 20v610l-20 20h-80v40h320c170 0 275 -73 275 -190c0 -101 -77 -169 -207 -186l262 -314l80 -10v-30h-730zM245 400h120c102 0 165 53 165 140c0 86 -63 140 -165 140h-100l-20 -20v-260zM245 60l20 -20h294l-244 310h-70v-290zM325 -280l-11 35
c50 13 81 40 81 95h-60v90h110v-70c0 -91 -36 -124 -120 -150z" />
    <glyph glyph-name="S" unicode="S" horiz-adv-x="659" 
d="M333 -20c-85 0 -138 20 -233 20h-20l-30 300h30c33 -192 108 -275 253 -275c102 0 167 55 167 138c0 102 -100 140 -202 179c-108 41 -218 84 -218 208s88 200 225 200c70 0 112 -20 205 -20h20l30 -250h-30c-30 146 -104 225 -224 225c-83 0 -136 -48 -136 -117
c0 -96 102 -135 207 -176c114 -44 232 -91 232 -212c0 -136 -102 -220 -276 -220z" />
    <glyph glyph-name="Sacute" unicode="&#x15a;" horiz-adv-x="659" 
d="M475 900l-210 -110l-17 18l147 172h80v-80zM333 -20c-85 0 -138 20 -233 20h-20l-30 300h30c33 -192 108 -275 253 -275c102 0 167 55 167 138c0 102 -100 140 -202 179c-108 41 -218 84 -218 208s88 200 225 200c70 0 112 -20 205 -20h20l30 -250h-30
c-30 146 -104 225 -224 225c-83 0 -136 -48 -136 -117c0 -96 102 -135 207 -176c114 -44 232 -91 232 -212c0 -136 -102 -220 -276 -220z" />
    <glyph glyph-name="Scaron" unicode="&#x160;" horiz-adv-x="659" 
d="M285 791l-135 172l20 17l160 -119l160 119l20 -17l-135 -172h-90zM377 412c114 -44 232 -91 232 -212c0 -136 -102 -220 -276 -220c-85 0 -138 20 -233 20h-20l-30 300h30c33 -192 108 -275 253 -275c102 0 167 55 167 138c0 102 -100 140 -202 179
c-108 41 -218 84 -218 208s88 200 225 200c70 0 112 -20 205 -20h20l30 -250h-30c-30 146 -104 225 -224 225c-83 0 -136 -48 -136 -117c0 -96 102 -135 207 -176z" />
    <glyph glyph-name="Scedilla" unicode="&#x15e;" horiz-adv-x="659" 
d="M333 -20c-13 0 -25 0 -37 1l-6 -31l10 -10c53 0 140 12 140 -76c0 -61 -59 -94 -180 -94h-71l10 50h146c13 9 25 30 25 45c0 37 -33 35 -110 35l-17 20l22 64c-52 6 -98 16 -165 16h-20l-30 300h30c33 -192 108 -275 253 -275c102 0 167 55 167 138
c0 102 -100 140 -202 179c-108 41 -218 84 -218 208s88 200 225 200c70 0 112 -20 205 -20h20l30 -250h-30c-30 146 -104 225 -224 225c-83 0 -136 -48 -136 -117c0 -96 102 -135 207 -176c114 -44 232 -91 232 -212c0 -136 -102 -220 -276 -220z" />
    <glyph glyph-name="uni0218" unicode="&#x218;" horiz-adv-x="659" 
d="M333 -20c-85 0 -138 20 -233 20h-20l-30 300h30c33 -192 108 -275 253 -275c102 0 167 55 167 138c0 102 -100 140 -202 179c-108 41 -218 84 -218 208s88 200 225 200c70 0 112 -20 205 -20h20l30 -250h-30c-30 146 -104 225 -224 225c-83 0 -136 -48 -136 -117
c0 -96 102 -135 207 -176c114 -44 232 -91 232 -212c0 -136 -102 -220 -276 -220zM265 -280l-11 35c50 13 81 40 81 95h-60v90h110v-70c0 -91 -36 -124 -120 -150z" />
    <glyph glyph-name="T" unicode="T" horiz-adv-x="790" 
d="M130 0v40h190l20 20v600l-20 20h-210l-60 -160h-30l10 210h730l10 -210h-30l-60 160h-210l-20 -20v-600l20 -20h190v-40h-530z" />
    <glyph glyph-name="Tbar" unicode="&#x166;" horiz-adv-x="780" 
d="M760 730l10 -210h-30l-60 160h-210l-20 -20v-244h190v-40h-190v-316l20 -20h190v-40h-530v40h190l20 20v316h-200v40h200v244l-20 20h-210l-60 -160h-30l10 210h730z" />
    <glyph glyph-name="Tcaron" unicode="&#x164;" horiz-adv-x="790" 
d="M355 791l-135 172l20 17l160 -119l160 119l20 -17l-135 -172h-90zM760 730l10 -210h-30l-60 160h-210l-20 -20v-600l20 -20h190v-40h-530v40h190l20 20v600l-20 20h-210l-60 -160h-30l10 210h730z" />
    <glyph glyph-name="uni0162" unicode="&#x162;" horiz-adv-x="790" 
d="M760 730l10 -210h-30l-60 160h-210l-20 -20v-600l20 -20h190v-40h-290l-10 -50l10 -10c53 0 140 12 140 -76c0 -61 -59 -94 -180 -94h-71l10 50h146c13 9 25 30 25 45c0 37 -33 35 -110 35l-17 20l27 80h-210v40h190l20 20v600l-20 20h-210l-60 -160h-30l10 210h730z" />
    <glyph glyph-name="uni021A" unicode="&#x21a;" horiz-adv-x="790" 
d="M130 0v40h190l20 20v600l-20 20h-210l-60 -160h-30l10 210h730l10 -210h-30l-60 160h-210l-20 -20v-600l20 -20h190v-40h-530zM335 -280l-11 35c50 13 81 40 81 95h-60v90h110v-70c0 -91 -36 -124 -120 -150z" />
    <glyph glyph-name="U" unicode="U" horiz-adv-x="810" 
d="M30 690v40h750v-40h-80l-20 -20v-420c0 -179 -91 -270 -271 -270c-185 0 -279 91 -279 270v420l-20 20h-80zM230 250c0 -138 67 -210 200 -210c125 0 190 72 190 210v420l-20 20h-350l-20 -20v-420z" />
    <glyph glyph-name="Uacute" unicode="&#xda;" horiz-adv-x="810" 
d="M575 900l-210 -110l-17 18l147 172h80v-80zM30 690v40h750v-40h-80l-20 -20v-420c0 -179 -91 -270 -271 -270c-185 0 -279 91 -279 270v420l-20 20h-80zM230 250c0 -138 67 -210 200 -210c125 0 190 72 190 210v420l-20 20h-350l-20 -20v-420z" />
    <glyph glyph-name="Ucircumflex" unicode="&#xdb;" horiz-adv-x="810" 
d="M440 909l-160 -119l-20 17l135 172h90l135 -172l-20 -17zM30 730h750v-40h-80l-20 -20v-420c0 -179 -91 -270 -271 -270c-185 0 -279 91 -279 270v420l-20 20h-80v40zM620 250v420l-20 20h-350l-20 -20v-420c0 -138 67 -210 200 -210c125 0 190 72 190 210z" />
    <glyph glyph-name="Udieresis" unicode="&#xdc;" horiz-adv-x="810" 
d="M280 860v120h120v-120h-120zM460 860v120h120v-120h-120zM30 690v40h750v-40h-80l-20 -20v-420c0 -179 -91 -270 -271 -270c-185 0 -279 91 -279 270v420l-20 20h-80zM230 250c0 -138 67 -210 200 -210c125 0 190 72 190 210v420l-20 20h-350l-20 -20v-420z" />
    <glyph glyph-name="Ugrave" unicode="&#xd9;" horiz-adv-x="810" 
d="M285 900v80h80l147 -172l-17 -18zM30 690v40h750v-40h-80l-20 -20v-420c0 -179 -91 -270 -271 -270c-185 0 -279 91 -279 270v420l-20 20h-80zM230 250c0 -138 67 -210 200 -210c125 0 190 72 190 210v420l-20 20h-350l-20 -20v-420z" />
    <glyph glyph-name="Uhungarumlaut" unicode="&#x170;" horiz-adv-x="810" 
d="M475 900l-150 -130l-20 15l90 195h80v-80zM655 900l-150 -130l-20 15l90 195h80v-80zM30 690v40h750v-40h-80l-20 -20v-420c0 -179 -91 -270 -271 -270c-185 0 -279 91 -279 270v420l-20 20h-80zM230 250c0 -138 67 -210 200 -210c125 0 190 72 190 210v420l-20 20h-350
l-20 -20v-420z" />
    <glyph glyph-name="Umacron" unicode="&#x16a;" horiz-adv-x="810" 
d="M270 840v80h320v-80h-320zM30 690v40h750v-40h-80l-20 -20v-420c0 -179 -91 -270 -271 -270c-185 0 -279 91 -279 270v420l-20 20h-80zM230 250c0 -138 67 -210 200 -210c125 0 190 72 190 210v420l-20 20h-350l-20 -20v-420z" />
    <glyph glyph-name="Uogonek" unicode="&#x172;" horiz-adv-x="810" 
d="M30 730h750v-40h-80l-20 -20v-420c0 -130 -48 -214 -144 -250c-36 -37 -55 -60 -55 -108s26 -82 66 -82c39 0 63 19 80 46l20 -20c-10 -29 -39 -96 -132 -96c-94 0 -130 84 -109 169l87 79c-26 -5 -54 -8 -84 -8c-185 0 -279 91 -279 270v420l-20 20h-80v40zM620 250v420
l-20 20h-350l-20 -20v-420c0 -138 67 -210 200 -210c125 0 190 72 190 210z" />
    <glyph glyph-name="Uring" unicode="&#x16e;" horiz-adv-x="810" 
d="M430 780c-61 0 -110 49 -110 111c0 60 49 109 110 109s110 -49 110 -109c0 -62 -49 -111 -110 -111zM430 820c39 0 70 31 70 71c0 38 -31 69 -70 69s-70 -31 -70 -69c0 -40 31 -71 70 -71zM30 690v40h750v-40h-80l-20 -20v-420c0 -179 -91 -270 -271 -270
c-185 0 -279 91 -279 270v420l-20 20h-80zM230 250c0 -138 67 -210 200 -210c125 0 190 72 190 210v420l-20 20h-350l-20 -20v-420z" />
    <glyph glyph-name="V" unicode="V" 
d="M5 690v40h740v-40h-73l-257 -690h-75l-252 690h-83zM205 670l190 -540h10l200 540l-20 20h-360z" />
    <glyph glyph-name="W" unicode="W" horiz-adv-x="1140" 
d="M5 690v40h1130v-40h-73l-257 -690h-60l-160 450h-10l-196 -450h-54l-237 690h-83zM205 670l170 -510h10l201 450h45l164 -450h10l190 510l-20 20h-750z" />
    <glyph glyph-name="Wacute" unicode="&#x1e82;" horiz-adv-x="1140" 
d="M745 900l-210 -110l-17 18l147 172h80v-80zM5 690v40h1130v-40h-73l-257 -690h-60l-160 450h-10l-196 -450h-54l-237 690h-83zM205 670l170 -510h10l201 450h45l164 -450h10l190 510l-20 20h-750z" />
    <glyph glyph-name="Wcircumflex" unicode="&#x174;" horiz-adv-x="1140" 
d="M610 909l-160 -119l-20 17l135 172h90l135 -172l-20 -17zM5 730h1130v-40h-73l-257 -690h-60l-160 450h-10l-196 -450h-54l-237 690h-83v40zM805 160l190 510l-20 20h-750l-20 -20l170 -510h10l201 450h45l164 -450h10z" />
    <glyph glyph-name="Wdieresis" unicode="&#x1e84;" horiz-adv-x="1140" 
d="M450 860v120h120v-120h-120zM630 860v120h120v-120h-120zM5 690v40h1130v-40h-73l-257 -690h-60l-160 450h-10l-196 -450h-54l-237 690h-83zM205 670l170 -510h10l201 450h45l164 -450h10l190 510l-20 20h-750z" />
    <glyph glyph-name="Wgrave" unicode="&#x1e80;" horiz-adv-x="1140" 
d="M455 900v80h80l147 -172l-17 -18zM5 690v40h1130v-40h-73l-257 -690h-60l-160 450h-10l-196 -450h-54l-237 690h-83zM205 670l170 -510h10l201 450h45l164 -450h10l190 510l-20 20h-750z" />
    <glyph glyph-name="X" unicode="X" horiz-adv-x="790" 
d="M5 0v40h85l253 331l-232 319h-86v40h720v-40h-85l-218 -288l257 -362h86v-40h-780zM255 670l155 -225l165 225l-10 20h-300zM175 60l10 -20h360l10 20l-180 267z" />
    <glyph glyph-name="Y" unicode="Y" horiz-adv-x="730" 
d="M5 690v40h720v-40h-68l-242 -400v-230l20 -20h80v-40h-300v40h80l20 20v230l-210 380l-20 20h-80zM215 670l170 -310h10l190 310l-20 20h-330z" />
    <glyph glyph-name="Yacute" unicode="&#xdd;" horiz-adv-x="730" 
d="M530 900l-210 -110l-17 18l147 172h80v-80zM5 690v40h720v-40h-68l-242 -400v-230l20 -20h80v-40h-300v40h80l20 20v230l-210 380l-20 20h-80zM215 670l170 -310h10l190 310l-20 20h-330z" />
    <glyph glyph-name="Ycircumflex" unicode="&#x176;" horiz-adv-x="730" 
d="M395 909l-160 -119l-20 17l135 172h90l135 -172l-20 -17zM5 730h720v-40h-68l-242 -400v-230l20 -20h80v-40h-300v40h80l20 20v230l-210 380l-20 20h-80v40zM395 360l190 310l-20 20h-330l-20 -20l170 -310h10z" />
    <glyph glyph-name="Ydieresis" unicode="&#x178;" horiz-adv-x="730" 
d="M235 860v120h120v-120h-120zM415 860v120h120v-120h-120zM5 690v40h720v-40h-68l-242 -400v-230l20 -20h80v-40h-300v40h80l20 20v230l-210 380l-20 20h-80zM215 670l170 -310h10l190 310l-20 20h-330z" />
    <glyph glyph-name="Ygrave" unicode="&#x1ef2;" horiz-adv-x="730" 
d="M240 900v80h80l147 -172l-17 -18zM5 690v40h720v-40h-68l-242 -400v-230l20 -20h80v-40h-300v40h80l20 20v230l-210 380l-20 20h-80zM215 670l170 -310h10l190 310l-20 20h-330z" />
    <glyph glyph-name="Z" unicode="Z" 
d="M35 0v10l496 670h-306l-110 -290h-30l30 340h570v-10l-496 -670h376l120 320h30l-30 -370h-650z" />
    <glyph glyph-name="Zacute" unicode="&#x179;" 
d="M520 900l-210 -110l-17 18l147 172h80v-80zM35 0v10l496 670h-306l-110 -290h-30l30 340h570v-10l-496 -670h376l120 320h30l-30 -370h-650z" />
    <glyph glyph-name="Zcaron" unicode="&#x17d;" 
d="M330 791l-135 172l20 17l160 -119l160 119l20 -17l-135 -172h-90zM685 370h30l-30 -370h-650v10l496 670h-306l-110 -290h-30l30 340h570v-10l-496 -670h376z" />
    <glyph glyph-name="Zdotaccent" unicode="&#x17b;" 
d="M315 860v120h120v-120h-120zM35 0v10l496 670h-306l-110 -290h-30l30 340h570v-10l-496 -670h376l120 320h30l-30 -370h-650z" />
    <glyph glyph-name="A.ss01" 
d="M5 0v40h72l243 630l-20 20h-90v40h200l252 -690h83v-40h-315v40h95l20 20l-73 200h-251l-76 -200l20 -20h85v-40h-245zM240 310h215l-100 290h-10z" />
    <glyph glyph-name="Aacute.ss01" 
d="M480 900l-210 -110l-17 18l147 172h80v-80zM5 0v40h72l243 630l-20 20h-90v40h200l252 -690h83v-40h-315v40h95l20 20l-73 200h-251l-76 -200l20 -20h85v-40h-245zM240 310h215l-100 290h-10z" />
    <glyph glyph-name="Abreve.ss01" 
d="M195 960c0 -43 29 -81 140 -81s140 38 140 81h20c0 -105 -49 -161 -160 -161s-160 56 -160 161h20zM5 0v40h72l243 630l-20 20h-90v40h200l252 -690h83v-40h-315v40h95l20 20l-73 200h-251l-76 -200l20 -20h85v-40h-245zM240 310h215l-100 290h-10z" />
    <glyph glyph-name="Acircumflex.ss01" 
d="M345 909l-160 -119l-20 17l135 172h90l135 -172l-20 -17zM662 40h83v-40h-315v40h95l20 20l-73 200h-251l-76 -200l20 -20h85v-40h-245v40h72l243 630l-20 20h-90v40h200zM240 310h215l-100 290h-10z" />
    <glyph glyph-name="Adieresis.ss01" 
d="M185 860v120h120v-120h-120zM365 860v120h120v-120h-120zM5 0v40h72l243 630l-20 20h-90v40h200l252 -690h83v-40h-315v40h95l20 20l-73 200h-251l-76 -200l20 -20h85v-40h-245zM240 310h215l-100 290h-10z" />
    <glyph glyph-name="Agrave.ss01" 
d="M190 900v80h80l147 -172l-17 -18zM5 0v40h72l243 630l-20 20h-90v40h200l252 -690h83v-40h-315v40h95l20 20l-73 200h-251l-76 -200l20 -20h85v-40h-245zM240 310h215l-100 290h-10z" />
    <glyph glyph-name="Amacron.ss01" 
d="M175 840v80h320v-80h-320zM5 0v40h72l243 630l-20 20h-90v40h200l252 -690h83v-40h-315v40h95l20 20l-73 200h-251l-76 -200l20 -20h85v-40h-245zM240 310h215l-100 290h-10z" />
    <glyph glyph-name="Aogonek.ss01" 
d="M745 0h-224c-36 -37 -55 -60 -55 -108s26 -82 66 -82c39 0 63 19 80 46l20 -20c-10 -29 -39 -96 -132 -96c-94 0 -130 84 -109 169l100 91h-61v40h95l20 20l-73 200h-251l-76 -200l20 -20h85v-40h-245v40h72l243 630l-20 20h-90v40h200l252 -690h83v-40zM240 310h215
l-100 290h-10z" />
    <glyph glyph-name="Aring.ss01" 
d="M335 780c-61 0 -110 49 -110 111c0 60 49 109 110 109s110 -49 110 -109c0 -62 -49 -111 -110 -111zM335 820c39 0 70 31 70 71c0 38 -31 69 -70 69s-70 -31 -70 -69c0 -40 31 -71 70 -71zM5 0v40h72l243 630l-20 20h-90v40h200l252 -690h83v-40h-315v40h95l20 20
l-73 200h-251l-76 -200l20 -20h85v-40h-245zM240 310h215l-100 290h-10z" />
    <glyph glyph-name="Atilde.ss01" 
d="M135 839c16 47 58 121 128 121c44 0 71 -18 99 -36c28 -17 57 -35 104 -35l48 71l20 -10c-16 -47 -58 -121 -128 -121c-44 0 -71 17 -98 35c-28 18 -57 36 -105 36l-48 -71zM5 0v40h72l243 630l-20 20h-90v40h200l252 -690h83v-40h-315v40h95l20 20l-73 200h-251
l-76 -200l20 -20h85v-40h-245zM240 310h215l-100 290h-10z" />
    <glyph glyph-name="AE.ss01" horiz-adv-x="982" 
d="M0 0v40h72l329 630l-20 20h-150v40h666l30 -190h-30l-110 150h-190l-20 -20v-270h150l50 120h30v-290h-30l-50 120h-150v-290l20 -20h220l110 150h30l-30 -190h-565v40h95l20 20v290h-179l-152 -290l20 -20h85v-40h-251zM321 400h156v265h-15z" />
    <glyph glyph-name="H.ss01" horiz-adv-x="880" 
d="M45 0v40h80l20 20v610l-20 20h-80v40h325v-40h-105l-20 -20v-260h390v260l-20 20h-105v40h325v-40h-80l-20 -20v-610l20 -20h80v-40h-325v40h105l20 20v300h-390v-300l20 -20h105v-40h-325z" />
    <glyph glyph-name="Hbar.ss01" horiz-adv-x="880" 
d="M755 690l-20 -20v-94h100v-40h-100v-476l20 -20h80v-40h-325v40h105l20 20v300h-390v-300l20 -20h105v-40h-325v40h80l20 20v476h-100v40h100v94l-20 20h-80v40h325v-40h-105l-20 -20v-94h390v94l-20 20h-105v40h325v-40h-80zM635 410v126h-390v-126h390z" />
    <glyph glyph-name="K.ss01" 
d="M45 0v40h80l20 20v610l-20 20h-80v40h300v-40h-80l-20 -20v-309l280 309l-10 20h-100v40h270v-40h-73l-211 -230l254 -400l30 -20h60v-40h-330v40h100l10 20l-197 316l-83 -95v-221l20 -20h80v-40h-300z" />
    <glyph glyph-name="uni0136.ss01" 
d="M45 0v40h80l20 20v610l-20 20h-80v40h300v-40h-80l-20 -20v-309l280 309l-10 20h-100v40h270v-40h-73l-211 -230l254 -400l30 -20h60v-40h-330v40h100l10 20l-197 316l-83 -95v-221l20 -20h80v-40h-300zM310 -280l-11 35c50 13 81 40 81 95h-60v90h110v-70
c0 -91 -36 -124 -120 -150z" />
    <glyph glyph-name="M.ss01" horiz-adv-x="1040" 
d="M45 0v40h80l20 20v610l-20 20h-80v40h240l230 -470h10l250 470h220v-40h-80l-20 -20v-610l20 -20h80v-40h-320v40h100l20 20v570h-10l-280 -530h-20l-270 520h-10v-560l20 -20h90v-40h-270z" />
    <glyph glyph-name="R.ss01" horiz-adv-x="780" 
d="M45 0v40h80l20 20v610l-20 20h-80v40h320c170 0 275 -73 275 -190c0 -101 -77 -169 -207 -186l262 -314l80 -10v-30h-185l-275 350h-70v-290l20 -20h100v-40h-320zM245 400h120c102 0 165 53 165 140c0 86 -63 140 -165 140h-100l-20 -20v-260z" />
    <glyph glyph-name="Racute.ss01" horiz-adv-x="780" 
d="M515 900l-210 -110l-17 18l147 172h80v-80zM45 0v40h80l20 20v610l-20 20h-80v40h320c170 0 275 -73 275 -190c0 -101 -77 -169 -207 -186l262 -314l80 -10v-30h-185l-275 350h-70v-290l20 -20h100v-40h-320zM245 400h120c102 0 165 53 165 140c0 86 -63 140 -165 140
h-100l-20 -20v-260z" />
    <glyph glyph-name="Rcaron.ss01" horiz-adv-x="780" 
d="M325 791l-135 172l20 17l160 -119l160 119l20 -17l-135 -172h-90zM695 40l80 -10v-30h-185l-275 350h-70v-290l20 -20h100v-40h-320v40h80l20 20v610l-20 20h-80v40h320c170 0 275 -73 275 -190c0 -101 -77 -169 -207 -186zM245 400h120c102 0 165 53 165 140
c0 86 -63 140 -165 140h-100l-20 -20v-260z" />
    <glyph glyph-name="uni0156.ss01" horiz-adv-x="780" 
d="M45 0v40h80l20 20v610l-20 20h-80v40h320c170 0 275 -73 275 -190c0 -101 -77 -169 -207 -186l262 -314l80 -10v-30h-185l-275 350h-70v-290l20 -20h100v-40h-320zM245 400h120c102 0 165 53 165 140c0 86 -63 140 -165 140h-100l-20 -20v-260zM325 -280l-11 35
c50 13 81 40 81 95h-60v90h110v-70c0 -91 -36 -124 -120 -150z" />
    <glyph glyph-name="U.ss01" horiz-adv-x="810" 
d="M409 -20c-185 0 -279 91 -279 270v420l-20 20h-80v40h325v-40h-105l-20 -20v-420c0 -138 67 -210 200 -210c125 0 190 72 190 210v420l-20 20h-95v40h275v-40h-80l-20 -20v-420c0 -179 -91 -270 -271 -270z" />
    <glyph glyph-name="Uacute.ss01" horiz-adv-x="810" 
d="M575 900l-210 -110l-17 18l147 172h80v-80zM409 -20c-185 0 -279 91 -279 270v420l-20 20h-80v40h325v-40h-105l-20 -20v-420c0 -138 67 -210 200 -210c125 0 190 72 190 210v420l-20 20h-95v40h275v-40h-80l-20 -20v-420c0 -179 -91 -270 -271 -270z" />
    <glyph glyph-name="Ucircumflex.ss01" horiz-adv-x="810" 
d="M440 909l-160 -119l-20 17l135 172h90l135 -172l-20 -17zM505 730h275v-40h-80l-20 -20v-420c0 -179 -91 -270 -271 -270c-185 0 -279 91 -279 270v420l-20 20h-80v40h325v-40h-105l-20 -20v-420c0 -138 67 -210 200 -210c125 0 190 72 190 210v420l-20 20h-95v40z" />
    <glyph glyph-name="Udieresis.ss01" horiz-adv-x="810" 
d="M280 860v120h120v-120h-120zM460 860v120h120v-120h-120zM409 -20c-185 0 -279 91 -279 270v420l-20 20h-80v40h325v-40h-105l-20 -20v-420c0 -138 67 -210 200 -210c125 0 190 72 190 210v420l-20 20h-95v40h275v-40h-80l-20 -20v-420c0 -179 -91 -270 -271 -270z" />
    <glyph glyph-name="Ugrave.ss01" horiz-adv-x="810" 
d="M285 900v80h80l147 -172l-17 -18zM409 -20c-185 0 -279 91 -279 270v420l-20 20h-80v40h325v-40h-105l-20 -20v-420c0 -138 67 -210 200 -210c125 0 190 72 190 210v420l-20 20h-95v40h275v-40h-80l-20 -20v-420c0 -179 -91 -270 -271 -270z" />
    <glyph glyph-name="Uhungarumlaut.ss01" horiz-adv-x="810" 
d="M475 900l-150 -130l-20 15l90 195h80v-80zM655 900l-150 -130l-20 15l90 195h80v-80zM409 -20c-185 0 -279 91 -279 270v420l-20 20h-80v40h325v-40h-105l-20 -20v-420c0 -138 67 -210 200 -210c125 0 190 72 190 210v420l-20 20h-95v40h275v-40h-80l-20 -20v-420
c0 -179 -91 -270 -271 -270z" />
    <glyph glyph-name="Umacron.ss01" horiz-adv-x="810" 
d="M270 840v80h320v-80h-320zM409 -20c-185 0 -279 91 -279 270v420l-20 20h-80v40h325v-40h-105l-20 -20v-420c0 -138 67 -210 200 -210c125 0 190 72 190 210v420l-20 20h-95v40h275v-40h-80l-20 -20v-420c0 -179 -91 -270 -271 -270z" />
    <glyph glyph-name="Uogonek.ss01" horiz-adv-x="810" 
d="M505 730h275v-40h-80l-20 -20v-420c0 -130 -48 -214 -144 -250c-36 -37 -55 -60 -55 -108s26 -82 66 -82c39 0 63 19 80 46l20 -20c-10 -29 -39 -96 -132 -96c-94 0 -130 84 -109 169l87 79c-26 -5 -54 -8 -84 -8c-185 0 -279 91 -279 270v420l-20 20h-80v40h325v-40
h-105l-20 -20v-420c0 -138 67 -210 200 -210c125 0 190 72 190 210v420l-20 20h-95v40z" />
    <glyph glyph-name="Uring.ss01" horiz-adv-x="810" 
d="M430 780c-61 0 -110 49 -110 111c0 60 49 109 110 109s110 -49 110 -109c0 -62 -49 -111 -110 -111zM430 820c39 0 70 31 70 71c0 38 -31 69 -70 69s-70 -31 -70 -69c0 -40 31 -71 70 -71zM409 -20c-185 0 -279 91 -279 270v420l-20 20h-80v40h325v-40h-105l-20 -20v-420
c0 -138 67 -210 200 -210c125 0 190 72 190 210v420l-20 20h-95v40h275v-40h-80l-20 -20v-420c0 -179 -91 -270 -271 -270z" />
    <glyph glyph-name="V.ss01" 
d="M340 0l-252 690h-83v40h310v-40h-90l-20 -20l190 -540h10l200 540l-20 20h-80v40h240v-40h-73l-257 -690h-75z" />
    <glyph glyph-name="W.ss01" horiz-adv-x="1140" 
d="M325 0l-237 690h-83v40h310v-40h-90l-20 -20l170 -510h10l201 450h45l164 -450h10l190 510l-20 20h-90v40h250v-40h-73l-257 -690h-60l-160 450h-10l-196 -450h-54z" />
    <glyph glyph-name="Wacute.ss01" horiz-adv-x="1140" 
d="M745 900l-210 -110l-17 18l147 172h80v-80zM325 0l-237 690h-83v40h310v-40h-90l-20 -20l170 -510h10l201 450h45l164 -450h10l190 510l-20 20h-90v40h250v-40h-73l-257 -690h-60l-160 450h-10l-196 -450h-54z" />
    <glyph glyph-name="Wcircumflex.ss01" horiz-adv-x="1140" 
d="M610 909l-160 -119l-20 17l135 172h90l135 -172l-20 -17zM885 730h250v-40h-73l-257 -690h-60l-160 450h-10l-196 -450h-54l-237 690h-83v40h310v-40h-90l-20 -20l170 -510h10l201 450h45l164 -450h10l190 510l-20 20h-90v40z" />
    <glyph glyph-name="Wdieresis.ss01" horiz-adv-x="1140" 
d="M450 860v120h120v-120h-120zM630 860v120h120v-120h-120zM325 0l-237 690h-83v40h310v-40h-90l-20 -20l170 -510h10l201 450h45l164 -450h10l190 510l-20 20h-90v40h250v-40h-73l-257 -690h-60l-160 450h-10l-196 -450h-54z" />
    <glyph glyph-name="Wgrave.ss01" horiz-adv-x="1140" 
d="M455 900v80h80l147 -172l-17 -18zM325 0l-237 690h-83v40h310v-40h-90l-20 -20l170 -510h10l201 450h45l164 -450h10l190 510l-20 20h-90v40h250v-40h-73l-257 -690h-60l-160 450h-10l-196 -450h-54z" />
    <glyph glyph-name="X.ss01" horiz-adv-x="790" 
d="M5 0v40h85l253 331l-232 319h-86v40h345v-40h-105l-10 -20l155 -225l165 225l-10 20h-85v40h265v-40h-85l-218 -288l257 -362h86v-40h-345v40h105l10 20l-180 267l-200 -267l10 -20h105v-40h-285z" />
    <glyph glyph-name="Y.ss01" horiz-adv-x="730" 
d="M215 0v40h80l20 20v230l-210 380l-20 20h-80v40h315v-40h-85l-20 -20l170 -310h10l190 310l-20 20h-85v40h245v-40h-68l-242 -400v-230l20 -20h80v-40h-300z" />
    <glyph glyph-name="Yacute.ss01" horiz-adv-x="730" 
d="M530 900l-210 -110l-17 18l147 172h80v-80zM215 0v40h80l20 20v230l-210 380l-20 20h-80v40h315v-40h-85l-20 -20l170 -310h10l190 310l-20 20h-85v40h245v-40h-68l-242 -400v-230l20 -20h80v-40h-300z" />
    <glyph glyph-name="Ycircumflex.ss01" horiz-adv-x="730" 
d="M395 909l-160 -119l-20 17l135 172h90l135 -172l-20 -17zM480 730h245v-40h-68l-242 -400v-230l20 -20h80v-40h-300v40h80l20 20v230l-210 380l-20 20h-80v40h315v-40h-85l-20 -20l170 -310h10l190 310l-20 20h-85v40z" />
    <glyph glyph-name="Ydieresis.ss01" horiz-adv-x="730" 
d="M235 860v120h120v-120h-120zM415 860v120h120v-120h-120zM215 0v40h80l20 20v230l-210 380l-20 20h-80v40h315v-40h-85l-20 -20l170 -310h10l190 310l-20 20h-85v40h245v-40h-68l-242 -400v-230l20 -20h80v-40h-300z" />
    <glyph glyph-name="Ygrave.ss01" horiz-adv-x="730" 
d="M240 900v80h80l147 -172l-17 -18zM215 0v40h80l20 20v230l-210 380l-20 20h-80v40h315v-40h-85l-20 -20l170 -310h10l190 310l-20 20h-85v40h245v-40h-68l-242 -400v-230l20 -20h80v-40h-300z" />
    <glyph glyph-name="a" unicode="a" horiz-adv-x="550" 
d="M189 -20c-91 0 -154 50 -154 123c0 72 60 131 170 167l150 50v40c0 68 -40 110 -111 110c-60 0 -98 -30 -94 -80l5 -60l-90 -40v80c0 93 76 150 191 150c118 0 189 -61 189 -160v-320h80v-40c-53 0 -114 -8 -160 -20v110h-10c-30 -72 -86 -110 -166 -110zM212 40
c78 0 143 86 143 190v40c-155 -41 -220 -99 -220 -159c0 -42 32 -71 77 -71z" />
    <glyph glyph-name="aacute" unicode="&#xe1;" horiz-adv-x="550" 
d="M400 670l-210 -110l-17 18l147 172h80v-80zM189 -20c-91 0 -154 50 -154 123c0 72 60 131 170 167l150 50v40c0 68 -40 110 -111 110c-60 0 -98 -30 -94 -80l5 -60l-90 -40v80c0 93 76 150 191 150c118 0 189 -61 189 -160v-320h80v-40c-53 0 -114 -8 -160 -20v110h-10
c-30 -72 -86 -110 -166 -110zM212 40c78 0 143 86 143 190v40c-155 -41 -220 -99 -220 -159c0 -42 32 -71 77 -71z" />
    <glyph glyph-name="abreve" unicode="&#x103;" horiz-adv-x="550" 
d="M115 730c0 -43 29 -81 140 -81s140 38 140 81h20c0 -105 -49 -161 -160 -161s-160 56 -160 161h20zM189 -20c-91 0 -154 50 -154 123c0 72 60 131 170 167l150 50v40c0 68 -40 110 -111 110c-60 0 -98 -30 -94 -80l5 -60l-90 -40v80c0 93 76 150 191 150
c118 0 189 -61 189 -160v-320h80v-40c-53 0 -114 -8 -160 -20v110h-10c-30 -72 -86 -110 -166 -110zM212 40c78 0 143 86 143 190v40c-155 -41 -220 -99 -220 -159c0 -42 32 -71 77 -71z" />
    <glyph glyph-name="acircumflex" unicode="&#xe2;" horiz-adv-x="550" 
d="M265 679l-160 -119l-20 17l135 172h90l135 -172l-20 -17zM445 40h80v-40c-53 0 -114 -8 -160 -20v110h-10c-30 -72 -86 -110 -166 -110c-91 0 -154 50 -154 123c0 72 60 131 170 167l150 50v40c0 68 -40 110 -111 110c-60 0 -98 -30 -94 -80l5 -60l-90 -40v80
c0 93 76 150 191 150c118 0 189 -61 189 -160v-320zM355 230v40c-155 -41 -220 -99 -220 -159c0 -42 32 -71 77 -71c78 0 143 86 143 190z" />
    <glyph glyph-name="adieresis" unicode="&#xe4;" horiz-adv-x="550" 
d="M105 630v120h120v-120h-120zM285 630v120h120v-120h-120zM189 -20c-91 0 -154 50 -154 123c0 72 60 131 170 167l150 50v40c0 68 -40 110 -111 110c-60 0 -98 -30 -94 -80l5 -60l-90 -40v80c0 93 76 150 191 150c118 0 189 -61 189 -160v-320h80v-40
c-53 0 -114 -8 -160 -20v110h-10c-30 -72 -86 -110 -166 -110zM212 40c78 0 143 86 143 190v40c-155 -41 -220 -99 -220 -159c0 -42 32 -71 77 -71z" />
    <glyph glyph-name="agrave" unicode="&#xe0;" horiz-adv-x="550" 
d="M110 670v80h80l147 -172l-17 -18zM189 -20c-91 0 -154 50 -154 123c0 72 60 131 170 167l150 50v40c0 68 -40 110 -111 110c-60 0 -98 -30 -94 -80l5 -60l-90 -40v80c0 93 76 150 191 150c118 0 189 -61 189 -160v-320h80v-40c-53 0 -114 -8 -160 -20v110h-10
c-30 -72 -86 -110 -166 -110zM212 40c78 0 143 86 143 190v40c-155 -41 -220 -99 -220 -159c0 -42 32 -71 77 -71z" />
    <glyph glyph-name="amacron" unicode="&#x101;" horiz-adv-x="550" 
d="M95 610v80h320v-80h-320zM189 -20c-91 0 -154 50 -154 123c0 72 60 131 170 167l150 50v40c0 68 -40 110 -111 110c-60 0 -98 -30 -94 -80l5 -60l-90 -40v80c0 93 76 150 191 150c118 0 189 -61 189 -160v-320h80v-40c-53 0 -114 -8 -160 -20v110h-10
c-30 -72 -86 -110 -166 -110zM212 40c78 0 143 86 143 190v40c-155 -41 -220 -99 -220 -159c0 -42 32 -71 77 -71z" />
    <glyph glyph-name="aogonek" unicode="&#x105;" horiz-adv-x="550" 
d="M525 0c-43 0 -92 -5 -134 -14c-33 -35 -51 -58 -51 -104c0 -48 26 -82 66 -82c39 0 63 19 80 46l20 -20c-10 -29 -39 -96 -132 -96c-94 0 -130 84 -109 169l100 91v100h-10c-30 -72 -86 -110 -166 -110c-91 0 -154 50 -154 123c0 72 60 131 170 167l150 50v40
c0 68 -40 110 -111 110c-60 0 -98 -30 -94 -80l5 -60l-90 -40v80c0 93 76 150 191 150c118 0 189 -61 189 -160v-320h80v-40zM355 230v40c-155 -41 -220 -99 -220 -159c0 -42 32 -71 77 -71c78 0 143 86 143 190z" />
    <glyph glyph-name="aring" unicode="&#xe5;" horiz-adv-x="550" 
d="M255 550c-61 0 -110 49 -110 111c0 60 49 109 110 109s110 -49 110 -109c0 -62 -49 -111 -110 -111zM255 590c39 0 70 31 70 71c0 38 -31 69 -70 69s-70 -31 -70 -69c0 -40 31 -71 70 -71zM189 -20c-91 0 -154 50 -154 123c0 72 60 131 170 167l150 50v40
c0 68 -40 110 -111 110c-60 0 -98 -30 -94 -80l5 -60l-90 -40v80c0 93 76 150 191 150c118 0 189 -61 189 -160v-320h80v-40c-53 0 -114 -8 -160 -20v110h-10c-30 -72 -86 -110 -166 -110zM212 40c78 0 143 86 143 190v40c-155 -41 -220 -99 -220 -159c0 -42 32 -71 77 -71z
" />
    <glyph glyph-name="atilde" unicode="&#xe3;" horiz-adv-x="550" 
d="M55 609c16 47 58 121 128 121c44 0 71 -18 99 -36c28 -17 57 -35 104 -35l48 71l20 -10c-16 -47 -58 -121 -128 -121c-44 0 -71 17 -98 35c-28 18 -57 36 -105 36l-48 -71zM189 -20c-91 0 -154 50 -154 123c0 72 60 131 170 167l150 50v40c0 68 -40 110 -111 110
c-60 0 -98 -30 -94 -80l5 -60l-90 -40v80c0 93 76 150 191 150c118 0 189 -61 189 -160v-320h80v-40c-53 0 -114 -8 -160 -20v110h-10c-30 -72 -86 -110 -166 -110zM212 40c78 0 143 86 143 190v40c-155 -41 -220 -99 -220 -159c0 -42 32 -71 77 -71z" />
    <glyph glyph-name="ae" unicode="&#xe6;" horiz-adv-x="866" 
d="M189 -20c-91 0 -154 50 -154 123c0 72 60 131 170 167l150 50v40c0 68 -40 110 -111 110c-60 0 -98 -30 -94 -80l5 -60l-90 -40v80c0 93 76 150 191 150c74 0 130 -28 159 -78c41 50 102 78 178 78c133 0 213 -84 213 -220l-30 -30h-320c-1 -7 -1 -16 -1 -20
c0 -133 59 -220 152 -220c90 0 152 82 169 200l40 -10c-24 -149 -100 -240 -234 -240c-92 0 -161 44 -197 120h-20c-40 -82 -96 -120 -176 -120zM460 320h226l20 20c0 81 -41 130 -110 130c-71 0 -122 -54 -136 -150zM212 40c78 0 143 86 143 190v40
c-155 -41 -220 -99 -220 -159c0 -42 32 -71 77 -71z" />
    <glyph glyph-name="b" unicode="b" horiz-adv-x="620" 
d="M325 -20c-69 0 -133 30 -165 80c-24 -14 -47 -37 -60 -60h-20v690h-80v40c56 0 120 15 170 40v-320h10c35 43 97 70 162 70c132 0 228 -111 228 -267c0 -154 -107 -273 -245 -273zM307 30c98 0 163 84 163 220c0 137 -66 220 -159 220c-86 0 -141 -70 -141 -160v-110
c0 -105 50 -170 137 -170z" />
    <glyph glyph-name="c" unicode="c" horiz-adv-x="550" 
d="M272 -20c-141 0 -222 94 -222 260c0 174 89 280 233 280c62 0 94 -20 147 -20h30l20 -210h-40c-15 122 -54 190 -138 190c-96 0 -152 -91 -152 -228c0 -135 54 -222 149 -222c92 0 154 82 171 200l40 -10c-24 -149 -100 -240 -238 -240z" />
    <glyph glyph-name="cacute" unicode="&#x107;" horiz-adv-x="550" 
d="M428 670l-210 -110l-17 18l147 172h80v-80zM272 -20c-141 0 -222 94 -222 260c0 174 89 280 233 280c62 0 94 -20 147 -20h30l20 -210h-40c-15 122 -54 190 -138 190c-96 0 -152 -91 -152 -228c0 -135 54 -222 149 -222c92 0 154 82 171 200l40 -10
c-24 -149 -100 -240 -238 -240z" />
    <glyph glyph-name="ccaron" unicode="&#x10d;" horiz-adv-x="550" 
d="M238 561l-135 172l20 17l160 -119l160 119l20 -17l-135 -172h-90zM470 230l40 -10c-24 -149 -100 -240 -238 -240c-141 0 -222 94 -222 260c0 174 89 280 233 280c62 0 94 -20 147 -20h30l20 -210h-40c-15 122 -54 190 -138 190c-96 0 -152 -91 -152 -228
c0 -135 54 -222 149 -222c92 0 154 82 171 200z" />
    <glyph glyph-name="ccedilla" unicode="&#xe7;" horiz-adv-x="550" 
d="M272 -20c-7 0 -14 0 -21 1l-6 -31l10 -10c53 0 140 12 140 -76c0 -61 -59 -94 -180 -94h-71l10 50h146c13 9 25 30 25 45c0 37 -33 35 -110 35l-17 20l22 65c-109 21 -170 111 -170 255c0 174 89 280 233 280c62 0 94 -20 147 -20h30l20 -210h-40
c-15 122 -54 190 -138 190c-96 0 -152 -91 -152 -228c0 -135 54 -222 149 -222c92 0 154 82 171 200l40 -10c-24 -149 -100 -240 -238 -240z" />
    <glyph glyph-name="cdotaccent" unicode="&#x10b;" horiz-adv-x="550" 
d="M223 630v120h120v-120h-120zM272 -20c-141 0 -222 94 -222 260c0 174 89 280 233 280c62 0 94 -20 147 -20h30l20 -210h-40c-15 122 -54 190 -138 190c-96 0 -152 -91 -152 -228c0 -135 54 -222 149 -222c92 0 154 82 171 200l40 -10c-24 -149 -100 -240 -238 -240z" />
    <glyph glyph-name="d" unicode="d" horiz-adv-x="650" 
d="M50 250c0 154 101 270 240 270c60 0 116 -21 150 -57h10v227h-150v40c99 0 190 15 240 40v-730h80v-40c-53 0 -114 -8 -160 -20v80h-10c-29 -50 -88 -80 -160 -80c-142 0 -240 116 -240 270zM150 250c0 -139 57 -220 156 -220c88 0 144 65 144 170v110
c0 99 -56 160 -140 160c-99 0 -160 -84 -160 -220z" />
    <glyph glyph-name="dcaron" unicode="&#x10f;" horiz-adv-x="735" 
d="M50 250c0 154 101 270 240 270c60 0 116 -21 150 -57h10v227h-150v40c99 0 190 15 240 40v-730h80v-40c-53 0 -114 -8 -160 -20v80h-10c-29 -50 -88 -80 -160 -80c-142 0 -240 116 -240 270zM635 459l-21 35c50 23 81 61 81 126h-60v110h110v-90
c0 -91 -36 -145 -110 -181zM150 250c0 -139 57 -220 156 -220c88 0 144 65 144 170v110c0 99 -56 160 -140 160c-99 0 -160 -84 -160 -220z" />
    <glyph glyph-name="dcroat" unicode="&#x111;" horiz-adv-x="600" 
d="M620 576h-80v-536h80v-40c-53 0 -114 -8 -160 -20v80h-10c-29 -50 -88 -80 -160 -80c-142 0 -240 116 -240 270s101 270 240 270c60 0 116 -21 150 -57h10v113h-206v40h206v74h-150v40c99 0 190 15 240 40v-154h80v-40zM450 200v110c0 99 -56 160 -140 160
c-99 0 -160 -84 -160 -220c0 -139 57 -220 156 -220c88 0 144 65 144 170z" />
    <glyph glyph-name="e" unicode="e" horiz-adv-x="560" 
d="M276 -20c-141 0 -226 102 -226 267c0 169 90 273 237 273c133 0 213 -84 213 -220l-30 -30h-320c-1 -7 -1 -16 -1 -20c0 -133 59 -220 152 -220c90 0 152 82 169 200l40 -10c-24 -149 -100 -240 -234 -240zM154 320h226l20 20c0 81 -41 130 -110 130
c-71 0 -122 -54 -136 -150z" />
    <glyph glyph-name="eacute" unicode="&#xe9;" horiz-adv-x="560" 
d="M432 670l-210 -110l-17 18l147 172h80v-80zM276 -20c-141 0 -226 102 -226 267c0 169 90 273 237 273c133 0 213 -84 213 -220l-30 -30h-320c-1 -7 -1 -16 -1 -20c0 -133 59 -220 152 -220c90 0 152 82 169 200l40 -10c-24 -149 -100 -240 -234 -240zM154 320h226l20 20
c0 81 -41 130 -110 130c-71 0 -122 -54 -136 -150z" />
    <glyph glyph-name="ecaron" unicode="&#x11b;" horiz-adv-x="560" 
d="M242 561l-135 172l20 17l160 -119l160 119l20 -17l-135 -172h-90zM470 230l40 -10c-24 -149 -100 -240 -234 -240c-141 0 -226 102 -226 267c0 169 90 273 237 273c133 0 213 -84 213 -220l-30 -30h-320c-1 -7 -1 -16 -1 -20c0 -133 59 -220 152 -220
c90 0 152 82 169 200zM290 470c-71 0 -122 -54 -136 -150h226l20 20c0 81 -41 130 -110 130z" />
    <glyph glyph-name="ecircumflex" unicode="&#xea;" horiz-adv-x="560" 
d="M297 679l-160 -119l-20 17l135 172h90l135 -172l-20 -17zM470 230l40 -10c-24 -149 -100 -240 -234 -240c-141 0 -226 102 -226 267c0 169 90 273 237 273c133 0 213 -84 213 -220l-30 -30h-320c-1 -7 -1 -16 -1 -20c0 -133 59 -220 152 -220c90 0 152 82 169 200z
M290 470c-71 0 -122 -54 -136 -150h226l20 20c0 81 -41 130 -110 130z" />
    <glyph glyph-name="edieresis" unicode="&#xeb;" horiz-adv-x="560" 
d="M137 630v120h120v-120h-120zM317 630v120h120v-120h-120zM276 -20c-141 0 -226 102 -226 267c0 169 90 273 237 273c133 0 213 -84 213 -220l-30 -30h-320c-1 -7 -1 -16 -1 -20c0 -133 59 -220 152 -220c90 0 152 82 169 200l40 -10c-24 -149 -100 -240 -234 -240z
M154 320h226l20 20c0 81 -41 130 -110 130c-71 0 -122 -54 -136 -150z" />
    <glyph glyph-name="edotaccent" unicode="&#x117;" horiz-adv-x="560" 
d="M227 630v120h120v-120h-120zM276 -20c-141 0 -226 102 -226 267c0 169 90 273 237 273c133 0 213 -84 213 -220l-30 -30h-320c-1 -7 -1 -16 -1 -20c0 -133 59 -220 152 -220c90 0 152 82 169 200l40 -10c-24 -149 -100 -240 -234 -240zM154 320h226l20 20
c0 81 -41 130 -110 130c-71 0 -122 -54 -136 -150z" />
    <glyph glyph-name="egrave" unicode="&#xe8;" horiz-adv-x="560" 
d="M142 670v80h80l147 -172l-17 -18zM276 -20c-141 0 -226 102 -226 267c0 169 90 273 237 273c133 0 213 -84 213 -220l-30 -30h-320c-1 -7 -1 -16 -1 -20c0 -133 59 -220 152 -220c90 0 152 82 169 200l40 -10c-24 -149 -100 -240 -234 -240zM154 320h226l20 20
c0 81 -41 130 -110 130c-71 0 -122 -54 -136 -150z" />
    <glyph glyph-name="emacron" unicode="&#x113;" horiz-adv-x="560" 
d="M127 610v80h320v-80h-320zM276 -20c-141 0 -226 102 -226 267c0 169 90 273 237 273c133 0 213 -84 213 -220l-30 -30h-320c-1 -7 -1 -16 -1 -20c0 -133 59 -220 152 -220c90 0 152 82 169 200l40 -10c-24 -149 -100 -240 -234 -240zM154 320h226l20 20
c0 81 -41 130 -110 130c-71 0 -122 -54 -136 -150z" />
    <glyph glyph-name="eogonek" unicode="&#x119;" horiz-adv-x="560" 
d="M384 -190c39 0 63 19 80 46l20 -20c-10 -29 -39 -96 -132 -96c-94 0 -130 84 -109 169l83 76c-16 -3 -32 -5 -50 -5c-141 0 -226 102 -226 267c0 169 90 273 237 273c133 0 213 -84 213 -220l-30 -30h-320c-1 -7 -1 -16 -1 -20c0 -133 59 -220 152 -220
c90 0 152 82 169 200l40 -10c-17 -109 -63 -186 -137 -221c-36 -36 -55 -59 -55 -107s26 -82 66 -82zM290 470c-71 0 -122 -54 -136 -150h226l20 20c0 81 -41 130 -110 130z" />
    <glyph glyph-name="f" unicode="f" horiz-adv-x="410" 
d="M20 0v40h90l20 20v400h-110v40h110v110l90 90c38 38 88 63 130 65l80 5l-20 -100h-170l-20 -20v-150h160v-40h-160v-400l20 -20h140v-40h-360z" />
    <glyph glyph-name="g" unicode="g" horiz-adv-x="575" 
d="M277 -250c-142 0 -230 59 -237 160l-5 80l100 -20v-80c0 -56 55 -90 148 -90c99 0 157 38 157 104c0 89 -106 89 -204 97c-84 6 -165 46 -165 169l104 10v10c-59 21 -100 83 -100 150c0 102 82 180 190 180c59 0 110 -22 144 -59c16 38 48 62 86 64l70 5l-15 -90h-105
l-12 -12c14 -26 22 -55 22 -88c0 -115 -69 -169 -190 -180l-120 -11c0 -58 51 -60 115 -64c110 -7 260 -16 260 -157c0 -111 -92 -178 -243 -178zM265 210c59 0 95 49 95 130s-36 130 -95 130s-95 -49 -95 -130s36 -130 95 -130z" />
    <glyph glyph-name="gbreve" unicode="&#x11f;" horiz-adv-x="575" 
d="M125 730c0 -43 29 -81 140 -81s140 38 140 81h20c0 -105 -49 -161 -160 -161s-160 56 -160 161h20zM277 -250c-142 0 -230 59 -237 160l-5 80l100 -20v-80c0 -56 55 -90 148 -90c99 0 157 38 157 104c0 89 -106 89 -204 97c-84 6 -165 46 -165 169l104 10v10
c-59 21 -100 83 -100 150c0 102 82 180 190 180c59 0 110 -22 144 -59c16 38 48 62 86 64l70 5l-15 -90h-105l-12 -12c14 -26 22 -55 22 -88c0 -115 -69 -169 -190 -180l-120 -11c0 -58 51 -60 115 -64c110 -7 260 -16 260 -157c0 -111 -92 -178 -243 -178zM265 210
c59 0 95 49 95 130s-36 130 -95 130s-95 -49 -95 -130s36 -130 95 -130z" />
    <glyph glyph-name="uni0123" unicode="&#x123;" horiz-adv-x="575" 
d="M320 820l21 -35c-50 -23 -81 -60 -81 -115h60v-110h-110v90c0 91 36 134 110 170zM277 -250c-142 0 -230 59 -237 160l-5 80l100 -20v-80c0 -56 55 -90 148 -90c99 0 157 38 157 104c0 89 -106 89 -204 97c-84 6 -165 46 -165 169l104 10v10c-59 21 -100 83 -100 150
c0 102 82 180 190 180c59 0 110 -22 144 -59c16 38 48 62 86 64l70 5l-15 -90h-105l-12 -12c14 -26 22 -55 22 -88c0 -115 -69 -169 -190 -180l-120 -11c0 -58 51 -60 115 -64c110 -7 260 -16 260 -157c0 -111 -92 -178 -243 -178zM265 210c59 0 95 49 95 130
s-36 130 -95 130s-95 -49 -95 -130s36 -130 95 -130z" />
    <glyph glyph-name="gdotaccent" unicode="&#x121;" horiz-adv-x="575" 
d="M205 630v120h120v-120h-120zM277 -250c-142 0 -230 59 -237 160l-5 80l100 -20v-80c0 -56 55 -90 148 -90c99 0 157 38 157 104c0 89 -106 89 -204 97c-84 6 -165 46 -165 169l104 10v10c-59 21 -100 83 -100 150c0 102 82 180 190 180c59 0 110 -22 144 -59
c16 38 48 62 86 64l70 5l-15 -90h-105l-12 -12c14 -26 22 -55 22 -88c0 -115 -69 -169 -190 -180l-120 -11c0 -58 51 -60 115 -64c110 -7 260 -16 260 -157c0 -111 -92 -178 -243 -178zM265 210c59 0 95 49 95 130s-36 130 -95 130s-95 -49 -95 -130s36 -130 95 -130z" />
    <glyph glyph-name="h" unicode="h" horiz-adv-x="660" 
d="M35 0v40h60l20 20v630h-80v40c56 0 120 15 170 40v-330h10c34 50 99 80 170 80c110 0 170 -63 170 -180v-280l20 -20h60v-40h-600zM205 60l20 -20h220l20 20v260c0 91 -39 140 -110 140c-97 0 -150 -60 -150 -170v-230z" />
    <glyph glyph-name="hbar" unicode="&#x127;" horiz-adv-x="660" 
d="M575 40h60v-40h-600v40h60l20 20v516h-80v40h80v74h-80v40c56 0 120 15 170 40v-154h206v-40h-206v-136h10c34 50 99 80 170 80c110 0 170 -63 170 -180v-280zM465 60v260c0 91 -39 140 -110 140c-97 0 -150 -60 -150 -170v-230l20 -20h220z" />
    <glyph glyph-name="i" unicode="i" horiz-adv-x="310" 
d="M95 630v120h120v-120h-120zM35 0v40h60l20 20v380h-80v40c56 0 120 15 170 40v-460l20 -20h60v-40h-250z" />
    <glyph glyph-name="dotlessi" unicode="&#x131;" horiz-adv-x="305" 
d="M35 0v40h60l20 20v380h-80v40c56 0 120 15 170 40v-460l20 -20h60v-40h-250z" />
    <glyph glyph-name="iacute" unicode="&#xed;" horiz-adv-x="305" 
d="M298 670l-210 -110l-17 18l147 172h80v-80zM35 0v40h60l20 20v380h-80v40c56 0 120 15 170 40v-460l20 -20h60v-40h-250z" />
    <glyph glyph-name="icircumflex" unicode="&#xee;" horiz-adv-x="305" 
d="M208 749l135 -172l-20 -17l-160 119l-160 -119l-20 17l135 172h90zM205 60l20 -20h60v-40h-250v40h60l20 20v380h-80v40c56 0 120 15 170 40v-460z" />
    <glyph glyph-name="idieresis" unicode="&#xef;" horiz-adv-x="305" 
d="M3 630v120h120v-120h-120zM183 630v120h120v-120h-120zM35 0v40h60l20 20v380h-80v40c56 0 120 15 170 40v-460l20 -20h60v-40h-250z" />
    <glyph glyph-name="i.loclTRK" horiz-adv-x="305" 
d="M93 630v120h120v-120h-120zM35 0v40h60l20 20v380h-80v40c56 0 120 15 170 40v-460l20 -20h60v-40h-250z" />
    <glyph glyph-name="igrave" unicode="&#xec;" horiz-adv-x="305" 
d="M8 670v80h80l147 -172l-17 -18zM35 0v40h60l20 20v380h-80v40c56 0 120 15 170 40v-460l20 -20h60v-40h-250z" />
    <glyph glyph-name="imacron" unicode="&#x12b;" horiz-adv-x="305" 
d="M-7 610v80h320v-80h-320zM35 0v40h60l20 20v380h-80v40c56 0 120 15 170 40v-460l20 -20h60v-40h-250z" />
    <glyph glyph-name="iogonek" unicode="&#x12f;" horiz-adv-x="305" 
d="M213 750v-120h-120v120h120zM285 0h-116c-36 -37 -55 -60 -55 -108s26 -82 66 -82c39 0 63 19 80 46l20 -20c-10 -29 -39 -96 -132 -96c-94 0 -130 84 -109 169l100 91h-104v40h60l20 20v380h-80v40c56 0 120 15 170 40v-460l20 -20h60v-40z" />
    <glyph glyph-name="j" unicode="j" horiz-adv-x="260" 
d="M80 630v120h120v-120h-120zM-80 -250l20 100h140l20 20v570h-80v40c56 0 120 15 170 40v-640l-60 -60c-38 -38 -88 -63 -130 -65z" />
    <glyph glyph-name="k" unicode="k" horiz-adv-x="575" 
d="M20 0v40h60l20 20v630h-80v40c56 0 120 15 170 40v-270h360v-40h-80l-137 -128l168 -292h69v-40h-550zM190 265l191 175l-10 20h-181v-195zM190 60l20 -20h166l10 20l-116 213l-80 -76v-137z" />
    <glyph glyph-name="uni0137" unicode="&#x137;" horiz-adv-x="575" 
d="M20 0v40h60l20 20v630h-80v40c56 0 120 15 170 40v-270h360v-40h-80l-137 -128l168 -292h69v-40h-550zM190 265l191 175l-10 20h-181v-195zM190 60l20 -20h166l10 20l-116 213l-80 -76v-137zM223 -280l-11 35c50 13 81 40 81 95h-60v90h110v-70c0 -91 -36 -124 -120 -150
z" />
    <glyph glyph-name="l" unicode="l" horiz-adv-x="290" 
d="M20 0v40h60l20 20v630h-80v40c56 0 120 15 170 40v-710l20 -20h60v-40h-250z" />
    <glyph glyph-name="lacute" unicode="&#x13a;" horiz-adv-x="290" 
d="M270 900l-210 -110l-17 18l147 172h80v-80zM20 0v40h60l20 20v630h-80v40c56 0 120 15 170 40v-710l20 -20h60v-40h-250z" />
    <glyph glyph-name="lcaron" unicode="&#x13e;" horiz-adv-x="385" 
d="M20 0v40h60l20 20v630h-80v40c56 0 120 15 170 40v-710l20 -20h60v-40h-250zM255 459l-21 35c50 23 81 61 81 126h-60v110h110v-90c0 -91 -36 -145 -110 -181z" />
    <glyph glyph-name="uni013C" unicode="&#x13c;" horiz-adv-x="290" 
d="M20 0v40h60l20 20v630h-80v40c56 0 120 15 170 40v-710l20 -20h60v-40h-250zM80 -280l-11 35c50 13 81 40 81 95h-60v90h110v-70c0 -91 -36 -124 -120 -150z" />
    <glyph glyph-name="lslash" unicode="&#x142;" horiz-adv-x="290" 
d="M190 60l20 -20h60v-40h-250v40h60l20 20v252l-62 -31l-18 42l80 39v328h-80v40c56 0 120 15 170 40v-364l64 31l16 -40l-80 -40v-297z" />
    <glyph glyph-name="m" unicode="m" horiz-adv-x="1010" 
d="M35 0v40h60l20 20v380h-80v40c50 0 110 15 160 40v-90h10c37 56 106 90 180 90c82 0 143 -34 160 -90h10c33 56 101 90 180 90c105 0 170 -68 170 -180v-280l20 -20h60v-40h-950zM205 60l20 -20h220l20 20v260c0 87 -42 140 -110 140c-93 0 -150 -65 -150 -170v-230z
M555 60l20 -20h220l20 20v260c0 87 -42 140 -110 140c-93 0 -150 -65 -150 -170v-230z" />
    <glyph glyph-name="n" unicode="n" horiz-adv-x="660" 
d="M35 0v40h60l20 20v380h-80v40c50 0 110 15 160 40v-90h10c38 58 101 90 180 90c110 0 170 -63 170 -180v-280l20 -20h60v-40h-600zM205 60l20 -20h220l20 20v260c0 91 -39 140 -110 140c-97 0 -150 -60 -150 -170v-230z" />
    <glyph glyph-name="nacute" unicode="&#x144;" horiz-adv-x="660" 
d="M475 670l-210 -110l-17 18l147 172h80v-80zM35 0v40h60l20 20v380h-80v40c50 0 110 15 160 40v-90h10c38 58 101 90 180 90c110 0 170 -63 170 -180v-280l20 -20h60v-40h-600zM205 60l20 -20h220l20 20v260c0 91 -39 140 -110 140c-97 0 -150 -60 -150 -170v-230z" />
    <glyph glyph-name="ncaron" unicode="&#x148;" horiz-adv-x="660" 
d="M285 561l-135 172l20 17l160 -119l160 119l20 -17l-135 -172h-90zM575 40h60v-40h-600v40h60l20 20v380h-80v40c50 0 110 15 160 40v-90h10c38 58 101 90 180 90c110 0 170 -63 170 -180v-280zM465 60v260c0 91 -39 140 -110 140c-97 0 -150 -60 -150 -170v-230l20 -20
h220z" />
    <glyph glyph-name="uni0146" unicode="&#x146;" horiz-adv-x="660" 
d="M35 0v40h60l20 20v380h-80v40c50 0 110 15 160 40v-90h10c38 58 101 90 180 90c110 0 170 -63 170 -180v-280l20 -20h60v-40h-600zM205 60l20 -20h220l20 20v260c0 91 -39 140 -110 140c-97 0 -150 -60 -150 -170v-230zM265 -280l-11 35c50 13 81 40 81 95h-60v90h110
v-70c0 -91 -36 -124 -120 -150z" />
    <glyph glyph-name="eng" unicode="&#x14b;" horiz-adv-x="660" 
d="M575 40h60v-40h-88c0 -211 -41 -240 -140 -245l-100 -5l20 100h80c73 0 84 38 90 150h-462v40h60l20 20v380h-80v40c50 0 110 15 160 40v-90h10c38 58 101 90 180 90c110 0 170 -63 170 -180v-280zM465 60v260c0 91 -39 140 -110 140c-97 0 -150 -60 -150 -170v-230
l20 -20h220z" />
    <glyph glyph-name="ntilde" unicode="&#xf1;" horiz-adv-x="660" 
d="M130 609c16 47 58 121 128 121c44 0 71 -18 99 -36c28 -17 57 -35 104 -35l48 71l20 -10c-16 -47 -58 -121 -128 -121c-44 0 -71 17 -98 35c-28 18 -57 36 -105 36l-48 -71zM35 0v40h60l20 20v380h-80v40c50 0 110 15 160 40v-90h10c38 58 101 90 180 90
c110 0 170 -63 170 -180v-280l20 -20h60v-40h-600zM205 60l20 -20h220l20 20v260c0 91 -39 140 -110 140c-97 0 -150 -60 -150 -170v-230z" />
    <glyph glyph-name="o" unicode="o" horiz-adv-x="620" 
d="M310 -20c-151 0 -260 113 -260 270c0 152 114 270 260 270c151 0 260 -113 260 -270c0 -152 -114 -270 -260 -270zM310 30c99 0 160 84 160 220s-61 220 -160 220s-160 -84 -160 -220s61 -220 160 -220z" />
    <glyph glyph-name="oacute" unicode="&#xf3;" horiz-adv-x="620" 
d="M455 670l-210 -110l-17 18l147 172h80v-80zM310 -20c-151 0 -260 113 -260 270c0 152 114 270 260 270c151 0 260 -113 260 -270c0 -152 -114 -270 -260 -270zM310 30c99 0 160 84 160 220s-61 220 -160 220s-160 -84 -160 -220s61 -220 160 -220z" />
    <glyph glyph-name="ocircumflex" unicode="&#xf4;" horiz-adv-x="620" 
d="M320 679l-160 -119l-20 17l135 172h90l135 -172l-20 -17zM310 520c151 0 260 -113 260 -270c0 -152 -114 -270 -260 -270c-151 0 -260 113 -260 270c0 152 114 270 260 270zM310 30c99 0 160 84 160 220s-61 220 -160 220s-160 -84 -160 -220s61 -220 160 -220z" />
    <glyph glyph-name="odieresis" unicode="&#xf6;" horiz-adv-x="620" 
d="M160 630v120h120v-120h-120zM340 630v120h120v-120h-120zM310 -20c-151 0 -260 113 -260 270c0 152 114 270 260 270c151 0 260 -113 260 -270c0 -152 -114 -270 -260 -270zM310 30c99 0 160 84 160 220s-61 220 -160 220s-160 -84 -160 -220s61 -220 160 -220z" />
    <glyph glyph-name="ograve" unicode="&#xf2;" horiz-adv-x="620" 
d="M165 670v80h80l147 -172l-17 -18zM310 -20c-151 0 -260 113 -260 270c0 152 114 270 260 270c151 0 260 -113 260 -270c0 -152 -114 -270 -260 -270zM310 30c99 0 160 84 160 220s-61 220 -160 220s-160 -84 -160 -220s61 -220 160 -220z" />
    <glyph glyph-name="ohungarumlaut" unicode="&#x151;" horiz-adv-x="620" 
d="M355 670l-150 -130l-20 15l90 195h80v-80zM535 670l-150 -130l-20 15l90 195h80v-80zM310 -20c-151 0 -260 113 -260 270c0 152 114 270 260 270c151 0 260 -113 260 -270c0 -152 -114 -270 -260 -270zM310 30c99 0 160 84 160 220s-61 220 -160 220s-160 -84 -160 -220
s61 -220 160 -220z" />
    <glyph glyph-name="omacron" unicode="&#x14d;" horiz-adv-x="620" 
d="M150 610v80h320v-80h-320zM310 -20c-151 0 -260 113 -260 270c0 152 114 270 260 270c151 0 260 -113 260 -270c0 -152 -114 -270 -260 -270zM310 30c99 0 160 84 160 220s-61 220 -160 220s-160 -84 -160 -220s61 -220 160 -220z" />
    <glyph glyph-name="oslash" unicode="&#xf8;" horiz-adv-x="620" 
d="M481 459c56 -49 89 -122 89 -209c0 -152 -114 -270 -260 -270c-51 0 -97 13 -136 36l-79 -114l-34 27l78 112c-56 48 -89 122 -89 209c0 152 114 270 260 270c51 0 98 -13 137 -36l79 114l34 -26zM150 250c0 -59 12 -109 33 -146l227 327c-26 25 -60 39 -100 39
c-99 0 -160 -84 -160 -220zM310 30c99 0 160 84 160 220c0 59 -12 108 -33 145l-226 -326c26 -25 59 -39 99 -39z" />
    <glyph glyph-name="otilde" unicode="&#xf5;" horiz-adv-x="620" 
d="M110 609c16 47 58 121 128 121c44 0 71 -18 99 -36c28 -17 57 -35 104 -35l48 71l20 -10c-16 -47 -58 -121 -128 -121c-44 0 -71 17 -98 35c-28 18 -57 36 -105 36l-48 -71zM310 -20c-151 0 -260 113 -260 270c0 152 114 270 260 270c151 0 260 -113 260 -270
c0 -152 -114 -270 -260 -270zM310 30c99 0 160 84 160 220s-61 220 -160 220s-160 -84 -160 -220s61 -220 160 -220z" />
    <glyph glyph-name="oe" unicode="&#x153;" horiz-adv-x="1010" 
d="M920 230l40 -10c-24 -149 -100 -240 -234 -240c-93 0 -161 44 -197 122c-46 -74 -126 -122 -219 -122c-151 0 -260 113 -260 270c0 152 114 270 260 270c97 0 177 -47 221 -122c39 78 110 122 206 122c133 0 213 -84 213 -220l-30 -30h-320c-1 -7 -1 -16 -1 -20
c0 -133 59 -220 152 -220c90 0 152 82 169 200zM310 30c99 0 160 84 160 220s-61 220 -160 220s-160 -84 -160 -220s61 -220 160 -220zM740 470c-71 0 -122 -54 -136 -150h226l20 20c0 81 -41 130 -110 130z" />
    <glyph glyph-name="p" unicode="p" horiz-adv-x="640" 
d="M20 -250v40h60l20 20v630h-80v40c50 0 110 15 160 40v-80h10c28 50 95 80 166 80c138 0 234 -111 234 -267c0 -154 -107 -273 -246 -273c-55 0 -106 18 -143 50h-11v-220l20 -20h160v-40h-350zM190 200c0 -105 55 -170 142 -170c98 0 158 84 158 220
c0 137 -61 220 -154 220c-86 0 -146 -70 -146 -160v-110z" />
    <glyph glyph-name="thorn" unicode="&#xfe;" horiz-adv-x="640" 
d="M20 -250v40h60l20 20v860h-80v40c50 0 110 15 160 40v-310h10c28 50 95 80 166 80c138 0 234 -111 234 -267c0 -154 -107 -273 -246 -273c-55 0 -106 18 -143 50h-11v-220l20 -20h160v-40h-350zM190 200c0 -105 55 -170 142 -170c98 0 158 84 158 220
c0 137 -61 220 -154 220c-86 0 -146 -70 -146 -160v-110z" />
    <glyph glyph-name="q" unicode="q" horiz-adv-x="630" 
d="M270 -250v40h160l20 20v240h-10c-35 -43 -97 -70 -162 -70c-132 0 -228 111 -228 267c0 154 107 273 245 273c69 0 133 -30 165 -80c24 14 47 37 60 60h20v-690l20 -20h60v-40h-350zM309 30c86 0 141 70 141 160v110c0 105 -50 170 -137 170c-98 0 -163 -84 -163 -220
c0 -137 66 -220 159 -220z" />
    <glyph glyph-name="r" unicode="r" horiz-adv-x="445" 
d="M20 0v40h60l20 20v380h-80v40c50 0 110 15 160 40v-130h10c27 73 84 121 150 125l80 5l-20 -100h-80c-81 0 -130 -61 -130 -160v-200l20 -20h160v-40h-350z" />
    <glyph glyph-name="racute" unicode="&#x155;" horiz-adv-x="445" 
d="M398 670l-210 -110l-17 18l147 172h80v-80zM20 0v40h60l20 20v380h-80v40c50 0 110 15 160 40v-130h10c27 73 84 121 150 125l80 5l-20 -100h-80c-81 0 -130 -61 -130 -160v-200l20 -20h160v-40h-350z" />
    <glyph glyph-name="rcaron" unicode="&#x159;" horiz-adv-x="445" 
d="M208 561l-135 172l20 17l160 -119l160 119l20 -17l-135 -172h-90zM190 390c27 73 84 121 150 125l80 5l-20 -100h-80c-81 0 -130 -61 -130 -160v-200l20 -20h160v-40h-350v40h60l20 20v380h-80v40c50 0 110 15 160 40v-130h10z" />
    <glyph glyph-name="uni0157" unicode="&#x157;" horiz-adv-x="445" 
d="M20 0v40h60l20 20v380h-80v40c50 0 110 15 160 40v-130h10c27 73 84 121 150 125l80 5l-20 -100h-80c-81 0 -130 -61 -130 -160v-200l20 -20h160v-40h-350zM98 -280l-11 35c50 13 81 40 81 95h-60v90h110v-70c0 -91 -36 -124 -120 -150z" />
    <glyph glyph-name="s" unicode="s" horiz-adv-x="480" 
d="M259 -20c-58 0 -106 20 -189 20h-10l-20 220h30c17 -114 76 -200 172 -200c62 0 98 38 98 81c0 61 -72 87 -143 120c-69 32 -137 71 -137 157c0 83 63 142 150 142c51 0 87 -20 160 -20h10l20 -180h-30c-18 92 -66 160 -142 160c-55 0 -88 -37 -88 -79
c0 -57 61 -84 127 -114c78 -34 163 -72 163 -163c0 -83 -71 -144 -171 -144z" />
    <glyph glyph-name="sacute" unicode="&#x15b;" horiz-adv-x="480" 
d="M385 670l-210 -110l-17 18l147 172h80v-80zM259 -20c-58 0 -106 20 -189 20h-10l-20 220h30c17 -114 76 -200 172 -200c62 0 98 38 98 81c0 61 -72 87 -143 120c-69 32 -137 71 -137 157c0 83 63 142 150 142c51 0 87 -20 160 -20h10l20 -180h-30
c-18 92 -66 160 -142 160c-55 0 -88 -37 -88 -79c0 -57 61 -84 127 -114c78 -34 163 -72 163 -163c0 -83 -71 -144 -171 -144z" />
    <glyph glyph-name="scaron" unicode="&#x161;" horiz-adv-x="480" 
d="M195 561l-135 172l20 17l160 -119l160 119l20 -17l-135 -172h-90zM267 287c78 -34 163 -72 163 -163c0 -83 -71 -144 -171 -144c-58 0 -106 20 -189 20h-10l-20 220h30c17 -114 76 -200 172 -200c62 0 98 38 98 81c0 61 -72 87 -143 120c-69 32 -137 71 -137 157
c0 83 63 142 150 142c51 0 87 -20 160 -20h10l20 -180h-30c-18 92 -66 160 -142 160c-55 0 -88 -37 -88 -79c0 -57 61 -84 127 -114z" />
    <glyph glyph-name="scedilla" unicode="&#x15f;" horiz-adv-x="480" 
d="M259 -20c-18 0 -35 2 -52 5l-7 -35l10 -10c53 0 140 12 140 -76c0 -61 -59 -94 -180 -94h-71l10 50h146c13 9 25 30 25 45c0 37 -33 35 -110 35l-17 20l23 70c-30 5 -63 10 -106 10h-10l-20 220h30c17 -114 76 -200 172 -200c62 0 98 38 98 81c0 61 -72 87 -143 120
c-69 32 -137 71 -137 157c0 83 63 142 150 142c51 0 87 -20 160 -20h10l20 -180h-30c-18 92 -66 160 -142 160c-55 0 -88 -37 -88 -79c0 -57 61 -84 127 -114c78 -34 163 -72 163 -163c0 -83 -71 -144 -171 -144z" />
    <glyph glyph-name="uni0219" unicode="&#x219;" horiz-adv-x="480" 
d="M259 -20c-58 0 -106 20 -189 20h-10l-20 220h30c17 -114 76 -200 172 -200c62 0 98 38 98 81c0 61 -72 87 -143 120c-69 32 -137 71 -137 157c0 83 63 142 150 142c51 0 87 -20 160 -20h10l20 -180h-30c-18 92 -66 160 -142 160c-55 0 -88 -37 -88 -79
c0 -57 61 -84 127 -114c78 -34 163 -72 163 -163c0 -83 -71 -144 -171 -144zM175 -280l-11 35c50 13 81 40 81 95h-60v90h110v-70c0 -91 -36 -124 -120 -150z" />
    <glyph glyph-name="germandbls" unicode="&#xdf;" horiz-adv-x="728" 
d="M20 0v20h90l20 20v590l58 46c61 49 113 74 194 74c89 0 197 -46 197 -162c0 -97 -66 -145 -164 -175v-10h41c108 0 227 -55 227 -225c0 -116 -79 -198 -159 -198c-69 0 -71 20 -171 20h-10l-20 210h30c44 -129 73 -190 139 -190c45 0 91 33 91 158
c0 157 -84 185 -167 185h-81v71c69 17 144 49 144 152c0 92 -50 124 -119 124c-55 0 -105 -30 -140 -62v-608l20 -20h60v-20h-280z" />
    <glyph glyph-name="t" unicode="t" horiz-adv-x="400" 
d="M229 -20c-79 0 -129 46 -129 120v360h-90v20c88 30 140 86 160 190h20v-170h160v-40h-160v-360c0 -43 24 -70 59 -70c53 0 91 64 91 190l40 -10c0 -148 -46 -230 -151 -230z" />
    <glyph glyph-name="tbar" unicode="&#x167;" horiz-adv-x="400" 
d="M340 220l40 -10c0 -148 -46 -230 -151 -230c-79 0 -129 46 -129 120v241h-90v40h90v79h-90v20c88 30 140 86 160 190h20v-170h160v-40h-160v-79h160v-40h-160v-241c0 -43 24 -70 59 -70c53 0 91 64 91 190z" />
    <glyph glyph-name="tcaron" unicode="&#x165;" horiz-adv-x="400" 
d="M248 530l-11 35c50 13 81 40 81 85h-60v80h110v-60c0 -81 -36 -114 -120 -140zM229 -20c-79 0 -129 46 -129 120v360h-90v20c88 30 140 86 160 190h20v-170h160v-40h-160v-360c0 -43 24 -70 59 -70c53 0 91 64 91 190l40 -10c0 -148 -46 -230 -151 -230z" />
    <glyph glyph-name="uni0163" unicode="&#x163;" horiz-adv-x="400" 
d="M210 -60c53 0 140 12 140 -76c0 -61 -59 -94 -180 -94h-71l10 50h146c13 9 25 30 25 45c0 37 -33 35 -110 35l-17 20l23 68c-48 16 -76 56 -76 112v360h-90v20c88 30 140 86 160 190h20v-170h160v-40h-160v-360c0 -43 24 -70 59 -70c53 0 91 64 91 190l40 -10
c0 -148 -46 -230 -151 -230c-8 0 -15 0 -23 1l-6 -31z" />
    <glyph glyph-name="uni021B" unicode="&#x21b;" horiz-adv-x="400" 
d="M229 -20c-79 0 -129 46 -129 120v360h-90v20c88 30 140 86 160 190h20v-170h160v-40h-160v-360c0 -43 24 -70 59 -70c53 0 91 64 91 190l40 -10c0 -148 -46 -230 -151 -230zM175 -280l-11 35c50 13 81 40 81 95h-60v90h110v-70c0 -91 -36 -124 -120 -150z" />
    <glyph glyph-name="u" unicode="u" horiz-adv-x="645" 
d="M20 460v40h520v-460h80v-40c-53 0 -114 -8 -160 -20v90h-10c-38 -58 -101 -90 -180 -90c-110 0 -170 63 -170 180v280l-20 20h-60zM190 180c0 -91 39 -140 110 -140c97 0 150 60 150 170v230l-20 20h-240v-280z" />
    <glyph glyph-name="uacute" unicode="&#xfa;" horiz-adv-x="645" 
d="M455 670l-210 -110l-17 18l147 172h80v-80zM20 460v40h520v-460h80v-40c-53 0 -114 -8 -160 -20v90h-10c-38 -58 -101 -90 -180 -90c-110 0 -170 63 -170 180v280l-20 20h-60zM190 180c0 -91 39 -140 110 -140c97 0 150 60 150 170v230l-20 20h-240v-280z" />
    <glyph glyph-name="ucircumflex" unicode="&#xfb;" horiz-adv-x="645" 
d="M320 679l-160 -119l-20 17l135 172h90l135 -172l-20 -17zM540 40h80v-40c-53 0 -114 -8 -160 -20v90h-10c-38 -58 -101 -90 -180 -90c-110 0 -170 63 -170 180v280l-20 20h-60v40h520v-460zM450 210v230l-20 20h-240v-280c0 -91 39 -140 110 -140c97 0 150 60 150 170z
" />
    <glyph glyph-name="udieresis" unicode="&#xfc;" horiz-adv-x="645" 
d="M160 630v120h120v-120h-120zM340 630v120h120v-120h-120zM20 460v40h520v-460h80v-40c-53 0 -114 -8 -160 -20v90h-10c-38 -58 -101 -90 -180 -90c-110 0 -170 63 -170 180v280l-20 20h-60zM190 180c0 -91 39 -140 110 -140c97 0 150 60 150 170v230l-20 20h-240v-280z
" />
    <glyph glyph-name="ugrave" unicode="&#xf9;" horiz-adv-x="645" 
d="M165 670v80h80l147 -172l-17 -18zM20 460v40h520v-460h80v-40c-53 0 -114 -8 -160 -20v90h-10c-38 -58 -101 -90 -180 -90c-110 0 -170 63 -170 180v280l-20 20h-60zM190 180c0 -91 39 -140 110 -140c97 0 150 60 150 170v230l-20 20h-240v-280z" />
    <glyph glyph-name="uhungarumlaut" unicode="&#x171;" horiz-adv-x="645" 
d="M355 670l-150 -130l-20 15l90 195h80v-80zM535 670l-150 -130l-20 15l90 195h80v-80zM20 460v40h520v-460h80v-40c-53 0 -114 -8 -160 -20v90h-10c-38 -58 -101 -90 -180 -90c-110 0 -170 63 -170 180v280l-20 20h-60zM190 180c0 -91 39 -140 110 -140
c97 0 150 60 150 170v230l-20 20h-240v-280z" />
    <glyph glyph-name="umacron" unicode="&#x16b;" horiz-adv-x="645" 
d="M150 610v80h320v-80h-320zM20 460v40h520v-460h80v-40c-53 0 -114 -8 -160 -20v90h-10c-38 -58 -101 -90 -180 -90c-110 0 -170 63 -170 180v280l-20 20h-60zM190 180c0 -91 39 -140 110 -140c97 0 150 60 150 170v230l-20 20h-240v-280z" />
    <glyph glyph-name="uogonek" unicode="&#x173;" horiz-adv-x="645" 
d="M620 0c-42 0 -89 -5 -130 -13c-36 -37 -55 -60 -55 -108s26 -82 66 -82c39 0 63 19 80 46l20 -20c-10 -29 -39 -96 -132 -96c-94 0 -130 84 -109 169l100 91v83h-10c-38 -58 -101 -90 -180 -90c-110 0 -170 63 -170 180v280l-20 20h-60v40h520v-460h80v-40zM450 210v230
l-20 20h-240v-280c0 -91 39 -140 110 -140c97 0 150 60 150 170z" />
    <glyph glyph-name="uring" unicode="&#x16f;" horiz-adv-x="645" 
d="M310 550c-61 0 -110 49 -110 111c0 60 49 109 110 109s110 -49 110 -109c0 -62 -49 -111 -110 -111zM310 590c39 0 70 31 70 71c0 38 -31 69 -70 69s-70 -31 -70 -69c0 -40 31 -71 70 -71zM20 460v40h520v-460h80v-40c-53 0 -114 -8 -160 -20v90h-10
c-38 -58 -101 -90 -180 -90c-110 0 -170 63 -170 180v280l-20 20h-60zM190 180c0 -91 39 -140 110 -140c97 0 150 60 150 170v230l-20 20h-240v-280z" />
    <glyph glyph-name="v" unicode="v" horiz-adv-x="580" 
d="M10 460v40h560v-40h-60l-170 -460h-80l-180 460h-70zM190 440l120 -340h10l120 340l-20 20h-210z" />
    <glyph glyph-name="w" unicode="w" horiz-adv-x="820" 
d="M10 460v40h800v-40h-60l-170 -460h-50l-110 340h-10l-130 -340h-45l-165 460h-60zM170 440l100 -290h10l124 310h-214zM467 460l103 -310h10l110 290l-20 20h-203z" />
    <glyph glyph-name="wacute" unicode="&#x1e83;" horiz-adv-x="820" 
d="M555 670l-210 -110l-17 18l147 172h80v-80zM10 460v40h800v-40h-60l-170 -460h-50l-110 340h-10l-130 -340h-45l-165 460h-60zM170 440l100 -290h10l124 310h-214zM467 460l103 -310h10l110 290l-20 20h-203z" />
    <glyph glyph-name="wcircumflex" unicode="&#x175;" horiz-adv-x="820" 
d="M420 679l-160 -119l-20 17l135 172h90l135 -172l-20 -17zM10 500h800v-40h-60l-170 -460h-50l-110 340h-10l-130 -340h-45l-165 460h-60v40zM280 150l124 310h-214l-20 -20l100 -290h10zM580 150l110 290l-20 20h-203l103 -310h10z" />
    <glyph glyph-name="wdieresis" unicode="&#x1e85;" horiz-adv-x="820" 
d="M260 630v120h120v-120h-120zM440 630v120h120v-120h-120zM10 460v40h800v-40h-60l-170 -460h-50l-110 340h-10l-130 -340h-45l-165 460h-60zM170 440l100 -290h10l124 310h-214zM467 460l103 -310h10l110 290l-20 20h-203z" />
    <glyph glyph-name="wgrave" unicode="&#x1e81;" horiz-adv-x="820" 
d="M265 670v80h80l147 -172l-17 -18zM10 460v40h800v-40h-60l-170 -460h-50l-110 340h-10l-130 -340h-45l-165 460h-60zM170 440l100 -290h10l124 310h-214zM467 460l103 -310h10l110 290l-20 20h-203z" />
    <glyph glyph-name="x" unicode="x" horiz-adv-x="580" 
d="M10 0v40h60l181 201l-161 219h-60v40h540v-40h-50l-181 -191l171 -229h60v-40h-560zM210 440l100 -130l125 130l-10 20h-205zM153 60l10 -20h207l10 20l-99 140z" />
    <glyph glyph-name="y" unicode="y" horiz-adv-x="620" 
d="M10 460v40h600v-40h-60l-230 -600c-27 -71 -68 -101 -140 -105l-100 -5l20 100h140c13 0 25 8 30 20l43 110l-233 480h-70zM185 440l163 -345h10l131 345l-20 20h-264z" />
    <glyph glyph-name="yacute" unicode="&#xfd;" horiz-adv-x="620" 
d="M455 670l-210 -110l-17 18l147 172h80v-80zM10 460v40h600v-40h-60l-230 -600c-27 -71 -68 -101 -140 -105l-100 -5l20 100h140c13 0 25 8 30 20l43 110l-233 480h-70zM185 440l163 -345h10l131 345l-20 20h-264z" />
    <glyph glyph-name="ycircumflex" unicode="&#x177;" horiz-adv-x="620" 
d="M320 679l-160 -119l-20 17l135 172h90l135 -172l-20 -17zM10 500h600v-40h-60l-230 -600c-27 -71 -68 -101 -140 -105l-100 -5l20 100h140c13 0 25 8 30 20l43 110l-233 480h-70v40zM358 95l131 345l-20 20h-264l-20 -20l163 -345h10z" />
    <glyph glyph-name="ydieresis" unicode="&#xff;" horiz-adv-x="620" 
d="M160 630v120h120v-120h-120zM340 630v120h120v-120h-120zM10 460v40h600v-40h-60l-230 -600c-27 -71 -68 -101 -140 -105l-100 -5l20 100h140c13 0 25 8 30 20l43 110l-233 480h-70zM185 440l163 -345h10l131 345l-20 20h-264z" />
    <glyph glyph-name="ygrave" unicode="&#x1ef3;" horiz-adv-x="620" 
d="M165 670v80h80l147 -172l-17 -18zM10 460v40h600v-40h-60l-230 -600c-27 -71 -68 -101 -140 -105l-100 -5l20 100h140c13 0 25 8 30 20l43 110l-233 480h-70zM185 440l163 -345h10l131 345l-20 20h-264z" />
    <glyph glyph-name="z" unicode="z" horiz-adv-x="550" 
d="M35 0v10l340 440h-210l-90 -250h-20l30 300h420v-10l-337 -440h247l80 250h20l-20 -300h-460z" />
    <glyph glyph-name="zacute" unicode="&#x17a;" horiz-adv-x="550" 
d="M420 670l-210 -110l-17 18l147 172h80v-80zM35 0v10l340 440h-210l-90 -250h-20l30 300h420v-10l-337 -440h247l80 250h20l-20 -300h-460z" />
    <glyph glyph-name="zcaron" unicode="&#x17e;" horiz-adv-x="550" 
d="M230 561l-135 172l20 17l160 -119l160 119l20 -17l-135 -172h-90zM495 300h20l-20 -300h-460v10l340 440h-210l-90 -250h-20l30 300h420v-10l-337 -440h247z" />
    <glyph glyph-name="zdotaccent" unicode="&#x17c;" horiz-adv-x="550" 
d="M215 630v120h120v-120h-120zM35 0v10l340 440h-210l-90 -250h-20l30 300h420v-10l-337 -440h247l80 250h20l-20 -300h-460z" />
    <glyph glyph-name="h.ss01" horiz-adv-x="660" 
d="M35 0v40h60l20 20v630h-80v40c56 0 120 15 170 40v-330h10c34 50 99 80 170 80c110 0 170 -63 170 -180v-280l20 -20h60v-40h-265v40h75l20 20v260c0 91 -39 140 -110 140c-97 0 -150 -60 -150 -170v-230l20 -20h75v-40h-265z" />
    <glyph glyph-name="hbar.ss01" horiz-adv-x="660" 
d="M575 40h60v-40h-265v40h75l20 20v260c0 91 -39 140 -110 140c-97 0 -150 -60 -150 -170v-230l20 -20h75v-40h-265v40h60l20 20v516h-80v40h80v74h-80v40c56 0 120 15 170 40v-154h206v-40h-206v-136h10c34 50 99 80 170 80c110 0 170 -63 170 -180v-280z" />
    <glyph glyph-name="k.ss01" horiz-adv-x="575" 
d="M20 0v40h60l20 20v630h-80v40c56 0 120 15 170 40v-505l191 175l-10 20h-91v40h270v-40h-80l-137 -128l168 -292h69v-40h-245v40h51l10 20l-116 213l-80 -76v-137l20 -20h50v-40h-240z" />
    <glyph glyph-name="uni0137.ss01" horiz-adv-x="575" 
d="M20 0v40h60l20 20v630h-80v40c56 0 120 15 170 40v-505l191 175l-10 20h-91v40h270v-40h-80l-137 -128l168 -292h69v-40h-245v40h51l10 20l-116 213l-80 -76v-137l20 -20h50v-40h-240zM223 -280l-11 35c50 13 81 40 81 95h-60v90h110v-70c0 -91 -36 -124 -120 -150z" />
    <glyph glyph-name="m.ss01" horiz-adv-x="1010" 
d="M35 0v40h60l20 20v380h-80v40c50 0 110 15 160 40v-90h10c37 56 106 90 180 90c82 0 143 -34 160 -90h10c33 56 101 90 180 90c105 0 170 -68 170 -180v-280l20 -20h60v-40h-265v40h75l20 20v260c0 87 -42 140 -110 140c-93 0 -150 -65 -150 -170v-230l20 -20h75v-40
h-280v40h75l20 20v260c0 87 -42 140 -110 140c-93 0 -150 -65 -150 -170v-230l20 -20h75v-40h-265z" />
    <glyph glyph-name="n.ss01" horiz-adv-x="660" 
d="M35 0v40h60l20 20v380h-80v40c50 0 110 15 160 40v-90h10c38 58 101 90 180 90c110 0 170 -63 170 -180v-280l20 -20h60v-40h-265v40h75l20 20v260c0 91 -39 140 -110 140c-97 0 -150 -60 -150 -170v-230l20 -20h75v-40h-265z" />
    <glyph glyph-name="nacute.ss01" horiz-adv-x="660" 
d="M475 670l-210 -110l-17 18l147 172h80v-80zM35 0v40h60l20 20v380h-80v40c50 0 110 15 160 40v-90h10c38 58 101 90 180 90c110 0 170 -63 170 -180v-280l20 -20h60v-40h-265v40h75l20 20v260c0 91 -39 140 -110 140c-97 0 -150 -60 -150 -170v-230l20 -20h75v-40h-265z
" />
    <glyph glyph-name="ncaron.ss01" horiz-adv-x="660" 
d="M285 561l-135 172l20 17l160 -119l160 119l20 -17l-135 -172h-90zM575 40h60v-40h-265v40h75l20 20v260c0 91 -39 140 -110 140c-97 0 -150 -60 -150 -170v-230l20 -20h75v-40h-265v40h60l20 20v380h-80v40c50 0 110 15 160 40v-90h10c38 58 101 90 180 90
c110 0 170 -63 170 -180v-280z" />
    <glyph glyph-name="uni0146.ss01" horiz-adv-x="660" 
d="M35 0v40h60l20 20v380h-80v40c50 0 110 15 160 40v-90h10c38 58 101 90 180 90c110 0 170 -63 170 -180v-280l20 -20h60v-40h-265v40h75l20 20v260c0 91 -39 140 -110 140c-97 0 -150 -60 -150 -170v-230l20 -20h75v-40h-265zM265 -280l-11 35c50 13 81 40 81 95h-60v90
h110v-70c0 -91 -36 -124 -120 -150z" />
    <glyph glyph-name="eng.ss01" horiz-adv-x="660" 
d="M575 40h60v-40h-88c0 -211 -41 -240 -140 -245l-100 -5l20 100h80c73 0 84 38 90 150h-127v40h75l20 20v260c0 91 -39 140 -110 140c-97 0 -150 -60 -150 -170v-230l20 -20h75v-40h-265v40h60l20 20v380h-80v40c50 0 110 15 160 40v-90h10c38 58 101 90 180 90
c110 0 170 -63 170 -180v-280z" />
    <glyph glyph-name="ntilde.ss01" horiz-adv-x="660" 
d="M130 609c16 47 58 121 128 121c44 0 71 -18 99 -36c28 -17 57 -35 104 -35l48 71l20 -10c-16 -47 -58 -121 -128 -121c-44 0 -71 17 -98 35c-28 18 -57 36 -105 36l-48 -71zM35 0v40h60l20 20v380h-80v40c50 0 110 15 160 40v-90h10c38 58 101 90 180 90
c110 0 170 -63 170 -180v-280l20 -20h60v-40h-265v40h75l20 20v260c0 91 -39 140 -110 140c-97 0 -150 -60 -150 -170v-230l20 -20h75v-40h-265z" />
    <glyph glyph-name="u.ss01" horiz-adv-x="645" 
d="M270 -20c-110 0 -170 63 -170 180v280l-20 20h-60v40h170v-320c0 -91 39 -140 110 -140c97 0 150 60 150 170v230l-20 20h-75v40h185v-460h80v-40c-53 0 -114 -8 -160 -20v90h-10c-38 -58 -101 -90 -180 -90z" />
    <glyph glyph-name="uacute.ss01" horiz-adv-x="645" 
d="M455 670l-210 -110l-17 18l147 172h80v-80zM270 -20c-110 0 -170 63 -170 180v280l-20 20h-60v40h170v-320c0 -91 39 -140 110 -140c97 0 150 60 150 170v230l-20 20h-75v40h185v-460h80v-40c-53 0 -114 -8 -160 -20v90h-10c-38 -58 -101 -90 -180 -90z" />
    <glyph glyph-name="ucircumflex.ss01" horiz-adv-x="645" 
d="M320 679l-160 -119l-20 17l135 172h90l135 -172l-20 -17zM540 40h80v-40c-53 0 -114 -8 -160 -20v90h-10c-38 -58 -101 -90 -180 -90c-110 0 -170 63 -170 180v280l-20 20h-60v40h170v-320c0 -91 39 -140 110 -140c97 0 150 60 150 170v230l-20 20h-75v40h185v-460z" />
    <glyph glyph-name="udieresis.ss01" horiz-adv-x="645" 
d="M160 630v120h120v-120h-120zM340 630v120h120v-120h-120zM270 -20c-110 0 -170 63 -170 180v280l-20 20h-60v40h170v-320c0 -91 39 -140 110 -140c97 0 150 60 150 170v230l-20 20h-75v40h185v-460h80v-40c-53 0 -114 -8 -160 -20v90h-10c-38 -58 -101 -90 -180 -90z" />
    <glyph glyph-name="ugrave.ss01" horiz-adv-x="645" 
d="M165 670v80h80l147 -172l-17 -18zM270 -20c-110 0 -170 63 -170 180v280l-20 20h-60v40h170v-320c0 -91 39 -140 110 -140c97 0 150 60 150 170v230l-20 20h-75v40h185v-460h80v-40c-53 0 -114 -8 -160 -20v90h-10c-38 -58 -101 -90 -180 -90z" />
    <glyph glyph-name="uhungarumlaut.ss01" horiz-adv-x="645" 
d="M355 670l-150 -130l-20 15l90 195h80v-80zM535 670l-150 -130l-20 15l90 195h80v-80zM270 -20c-110 0 -170 63 -170 180v280l-20 20h-60v40h170v-320c0 -91 39 -140 110 -140c97 0 150 60 150 170v230l-20 20h-75v40h185v-460h80v-40c-53 0 -114 -8 -160 -20v90h-10
c-38 -58 -101 -90 -180 -90z" />
    <glyph glyph-name="umacron.ss01" horiz-adv-x="645" 
d="M150 610v80h320v-80h-320zM270 -20c-110 0 -170 63 -170 180v280l-20 20h-60v40h170v-320c0 -91 39 -140 110 -140c97 0 150 60 150 170v230l-20 20h-75v40h185v-460h80v-40c-53 0 -114 -8 -160 -20v90h-10c-38 -58 -101 -90 -180 -90z" />
    <glyph glyph-name="uogonek.ss01" horiz-adv-x="645" 
d="M620 0c-42 0 -89 -5 -130 -13c-36 -37 -55 -60 -55 -108s26 -82 66 -82c39 0 63 19 80 46l20 -20c-10 -29 -39 -96 -132 -96c-94 0 -130 84 -109 169l100 91v83h-10c-38 -58 -101 -90 -180 -90c-110 0 -170 63 -170 180v280l-20 20h-60v40h170v-320
c0 -91 39 -140 110 -140c97 0 150 60 150 170v230l-20 20h-75v40h185v-460h80v-40z" />
    <glyph glyph-name="uring.ss01" horiz-adv-x="645" 
d="M310 550c-61 0 -110 49 -110 111c0 60 49 109 110 109s110 -49 110 -109c0 -62 -49 -111 -110 -111zM310 590c39 0 70 31 70 71c0 38 -31 69 -70 69s-70 -31 -70 -69c0 -40 31 -71 70 -71zM270 -20c-110 0 -170 63 -170 180v280l-20 20h-60v40h170v-320
c0 -91 39 -140 110 -140c97 0 150 60 150 170v230l-20 20h-75v40h185v-460h80v-40c-53 0 -114 -8 -160 -20v90h-10c-38 -58 -101 -90 -180 -90z" />
    <glyph glyph-name="v.ss01" horiz-adv-x="580" 
d="M260 0l-180 460h-70v40h270v-40h-70l-20 -20l120 -340h10l120 340l-20 20h-60v40h210v-40h-60l-170 -460h-80z" />
    <glyph glyph-name="w.ss01" horiz-adv-x="820" 
d="M235 0l-165 460h-60v40h270v-40h-90l-20 -20l100 -290h10l140 350h34l116 -350h10l110 290l-20 20h-80v40h220v-40h-60l-170 -460h-50l-110 340h-10l-130 -340h-45z" />
    <glyph glyph-name="wacute.ss01" horiz-adv-x="820" 
d="M555 670l-210 -110l-17 18l147 172h80v-80zM235 0l-165 460h-60v40h270v-40h-90l-20 -20l100 -290h10l140 350h34l116 -350h10l110 290l-20 20h-80v40h220v-40h-60l-170 -460h-50l-110 340h-10l-130 -340h-45z" />
    <glyph glyph-name="wcircumflex.ss01" horiz-adv-x="820" 
d="M420 679l-160 -119l-20 17l135 172h90l135 -172l-20 -17zM590 500h220v-40h-60l-170 -460h-50l-110 340h-10l-130 -340h-45l-165 460h-60v40h270v-40h-90l-20 -20l100 -290h10l140 350h34l116 -350h10l110 290l-20 20h-80v40z" />
    <glyph glyph-name="wdieresis.ss01" horiz-adv-x="820" 
d="M260 630v120h120v-120h-120zM440 630v120h120v-120h-120zM235 0l-165 460h-60v40h270v-40h-90l-20 -20l100 -290h10l140 350h34l116 -350h10l110 290l-20 20h-80v40h220v-40h-60l-170 -460h-50l-110 340h-10l-130 -340h-45z" />
    <glyph glyph-name="wgrave.ss01" horiz-adv-x="820" 
d="M265 670v80h80l147 -172l-17 -18zM235 0l-165 460h-60v40h270v-40h-90l-20 -20l100 -290h10l140 350h34l116 -350h10l110 290l-20 20h-80v40h220v-40h-60l-170 -460h-50l-110 340h-10l-130 -340h-45z" />
    <glyph glyph-name="x.ss01" horiz-adv-x="580" 
d="M10 0v40h60l181 201l-161 219h-60v40h260v-40h-70l-10 -20l100 -130l125 130l-10 20h-65v40h210v-40h-50l-181 -191l171 -229h60v-40h-260v40h60l10 20l-99 140l-128 -140l10 -20h67v-40h-220z" />
    <glyph glyph-name="y.ss01" horiz-adv-x="620" 
d="M80 -250l20 100h140c13 0 25 8 30 20l43 110l-233 480h-70v40h265v-40h-70l-20 -20l163 -344h10l131 344l-20 20h-64v40h205v-40h-60l-230 -600c-27 -71 -68 -101 -140 -105z" />
    <glyph glyph-name="yacute.ss01" horiz-adv-x="620" 
d="M455 670l-210 -110l-17 18l147 172h80v-80zM80 -250l20 100h140c13 0 25 8 30 20l43 110l-233 480h-70v40h265v-40h-70l-20 -20l163 -344h10l131 344l-20 20h-64v40h205v-40h-60l-230 -600c-27 -71 -68 -101 -140 -105z" />
    <glyph glyph-name="ycircumflex.ss01" horiz-adv-x="620" 
d="M320 679l-160 -119l-20 17l135 172h90l135 -172l-20 -17zM405 500h205v-40h-60l-230 -600c-27 -71 -68 -101 -140 -105l-100 -5l20 100h140c13 0 25 8 30 20l43 110l-233 480h-70v40h265v-40h-70l-20 -20l163 -344h10l131 344l-20 20h-64v40z" />
    <glyph glyph-name="ydieresis.ss01" horiz-adv-x="620" 
d="M160 630v120h120v-120h-120zM340 630v120h120v-120h-120zM80 -250l20 100h140c13 0 25 8 30 20l43 110l-233 480h-70v40h265v-40h-70l-20 -20l163 -344h10l131 344l-20 20h-64v40h205v-40h-60l-230 -600c-27 -71 -68 -101 -140 -105z" />
    <glyph glyph-name="ygrave.ss01" horiz-adv-x="620" 
d="M165 670v80h80l147 -172l-17 -18zM80 -250l20 100h140c13 0 25 8 30 20l43 110l-233 480h-70v40h265v-40h-70l-20 -20l163 -344h10l131 344l-20 20h-64v40h205v-40h-60l-230 -600c-27 -71 -68 -101 -140 -105z" />
    <glyph glyph-name="i.ss02" horiz-adv-x="310" 
d="M155 630c-40 0 -70 30 -70 70s30 70 70 70s70 -30 70 -70s-30 -70 -70 -70zM35 0v40h60l20 20v380h-80v40c56 0 120 15 170 40v-460l20 -20h60v-40h-250z" />
    <glyph glyph-name="j.ss02" horiz-adv-x="270" 
d="M140 630c-40 0 -70 30 -70 70s30 70 70 70s70 -30 70 -70s-30 -70 -70 -70zM-80 -250l20 100h140l20 20v570h-80v40c56 0 120 15 170 40v-640l-60 -60c-38 -38 -88 -63 -130 -65z" />
    <glyph glyph-name="zero" unicode="0" horiz-adv-x="660" 
d="M330 -20c-174 0 -280 146 -280 385s106 385 280 385s280 -146 280 -385s-106 -385 -280 -385zM330 30c107 0 170 125 170 335c0 213 -62 335 -170 335c-109 0 -170 -121 -170 -335c0 -210 63 -335 170 -335z" />
    <glyph glyph-name="one" unicode="1" horiz-adv-x="400" 
d="M55 0v40h80l20 20v590l-20 20h-90v40c63 0 149 15 210 40v-690l20 -20h80v-40h-300z" />
    <glyph glyph-name="two" unicode="2" horiz-adv-x="590" 
d="M50 0v40c141 125 360 295 360 501c0 99 -51 159 -135 159c-76 0 -125 -49 -125 -128c0 -66 34 -111 90 -122v-10l-90 -40c-56 27 -90 87 -90 158c0 115 88 192 230 192c143 0 230 -78 230 -206c0 -156 -129 -294 -340 -454v-10h250l70 190h30l-30 -270h-450z" />
    <glyph glyph-name="three" unicode="3" horiz-adv-x="581" 
d="M278 -20c-141 0 -228 67 -228 172c0 60 28 104 74 118l90 -30v-10c-39 -17 -63 -55 -63 -96c0 -61 55 -109 127 -109c82 0 133 62 133 168c0 103 -48 167 -127 167h-60v50h60c68 0 110 51 110 144c0 92 -41 146 -117 146c-62 0 -103 -37 -103 -93c0 -42 23 -69 60 -77
v-10l-90 -30c-43 17 -70 58 -70 110c0 90 82 150 207 150c138 0 223 -73 223 -182c0 -92 -60 -158 -140 -178v-10c104 -26 167 -102 167 -199c0 -122 -99 -201 -253 -201z" />
    <glyph glyph-name="four" unicode="4" horiz-adv-x="610" 
d="M150 0v40h160l20 20v110h-310v50l370 510h40v-510h60l20 20v160h40v-310h-40v60l-20 20h-60v-110l20 -20h100v-40h-400zM80 220h250v328h-10z" />
    <glyph glyph-name="five" unicode="5" horiz-adv-x="550" 
d="M217 -20c-116 0 -188 53 -192 140l-5 110l100 -20v-100c0 -50 35 -80 93 -80c103 0 167 93 167 236c0 114 -41 184 -108 184c-50 0 -92 -38 -112 -100h-50l90 380h290v-80h-250l-50 -190h10c17 25 59 40 106 40c114 0 184 -89 184 -233c0 -177 -105 -287 -273 -287z" />
    <glyph glyph-name="six" unicode="6" horiz-adv-x="620" 
d="M314 -20c-162 0 -254 125 -254 330c0 273 76 440 257 440c115 0 194 -68 208 -180l5 -40l-100 20v20c0 81 -46 130 -119 130c-113 0 -151 -118 -151 -310h10c37 53 100 85 176 85c127 0 214 -89 214 -235c0 -156 -99 -260 -246 -260zM314 23c85 0 136 79 136 204
s-51 201 -129 201c-60 0 -116 -45 -151 -118v-50c0 -147 54 -237 144 -237z" />
    <glyph glyph-name="seven" unicode="7" horiz-adv-x="483" 
d="M63 0c128 211 252 454 325 640h-255l-76 -170h-27l43 260h410v-19l-300 -711h-120z" />
    <glyph glyph-name="eight" unicode="8" horiz-adv-x="560" 
d="M270 -20c-133 0 -220 68 -220 174c0 103 81 178 160 216v10c-87 50 -140 99 -140 188c0 110 80 182 210 182c123 0 200 -64 200 -166c0 -84 -53 -142 -120 -174v-10c93 -46 150 -101 150 -205c0 -132 -93 -215 -240 -215zM320 420c48 31 80 101 80 161
c0 73 -46 119 -125 119c-76 0 -125 -42 -125 -102c0 -89 110 -148 170 -178zM279 30c86 0 141 49 141 130c0 93 -72 151 -170 190c-66 -38 -110 -112 -110 -188c0 -83 52 -132 139 -132z" />
    <glyph glyph-name="nine" unicode="9" horiz-adv-x="620" 
d="M303 -20c-115 0 -194 68 -208 180l-5 40l100 -20v-20c0 -81 46 -130 119 -130c113 0 151 118 151 310h-10c-37 -53 -100 -85 -176 -85c-127 0 -214 89 -214 235c0 156 99 260 246 260c162 0 254 -125 254 -330c0 -273 -76 -440 -257 -440zM299 302c60 0 116 45 151 118
v50c0 147 -54 237 -144 237c-85 0 -136 -79 -136 -204s51 -201 129 -201z" />
    <glyph glyph-name="fraction" unicode="&#x2044;" horiz-adv-x="410" 
d="M69 -250l-69 20l341 980l69 -20z" />
    <glyph glyph-name="period" unicode="." horiz-adv-x="210" 
d="M50 0v110h110v-110h-110z" />
    <glyph glyph-name="comma" unicode="," horiz-adv-x="211" 
d="M51 -161l-21 35c50 23 81 61 81 126h-60v110h110v-90c0 -91 -36 -145 -110 -181z" />
    <glyph glyph-name="colon" unicode=":" horiz-adv-x="210" 
d="M50 420v110h110v-110h-110zM50 0v110h110v-110h-110z" />
    <glyph glyph-name="semicolon" unicode=";" horiz-adv-x="211" 
d="M50 420v110h110v-110h-110zM51 -161l-21 35c50 23 81 61 81 126h-60v110h110v-90c0 -91 -36 -145 -110 -181z" />
    <glyph glyph-name="ellipsis" unicode="&#x2026;" horiz-adv-x="600" 
d="M50 110h110v-110h-110v110z" />
    <glyph glyph-name="exclam" unicode="!" horiz-adv-x="250" 
d="M95 220c-7 137 -13 273 -20 410v100h100v-100c-7 -137 -13 -273 -20 -410h-60zM70 0v110h110v-110h-110z" />
    <glyph glyph-name="exclamdown" unicode="&#xa1;" horiz-adv-x="250" 
d="M70 500h110v-110h-110v110zM95 280h60c7 -137 13 -273 20 -410v-100h-100v100c7 137 13 273 20 410z" />
    <glyph glyph-name="question" unicode="?" horiz-adv-x="320" 
d="M110 220l-20 220h20c87 0 140 38 140 99c0 37 -19 68 -50 91h-170l-20 100l80 -5c136 -8 220 -83 220 -192c0 -93 -54 -163 -150 -183v-130h-50zM80 0v110h110v-110h-110z" />
    <glyph glyph-name="questiondown" unicode="&#xbf;" horiz-adv-x="320" 
d="M240 500v-110h-110v110h110zM210 280l20 -220h-20c-87 0 -140 -38 -140 -99c0 -37 19 -68 50 -91h170l20 -100l-80 5c-136 8 -220 83 -220 192c0 93 54 163 150 183v130h50z" />
    <glyph glyph-name="periodcentered" unicode="&#xb7;" horiz-adv-x="210" 
d="M50 195v110h110v-110h-110z" />
    <glyph glyph-name="bullet" unicode="&#x2022;" horiz-adv-x="347" 
d="M50 126v247h247v-247h-247z" />
    <glyph glyph-name="asterisk" unicode="*" horiz-adv-x="420" 
d="M390 613v-40l-153 11l130 -81l-23 -32l-117 99l58 -142l-38 -13l-37 149l-37 -149l-38 13l58 142l-117 -99l-23 32l130 81l-153 -11v40l153 -12l-130 81l23 33l117 -100l-58 143l38 12l37 -149l37 149l38 -12l-58 -143l117 100l23 -33l-130 -81z" />
    <glyph glyph-name="numbersign" unicode="#" horiz-adv-x="931" 
d="M901 395h-199l-100 -290h177v-70h-202l-99 -285l-69 20l92 265h-224l-99 -285l-69 20l92 265h-171v70h196l100 290h-174v70h199l99 285l69 -20l-92 -265h224l99 285l69 -20l-92 -265h174v-70zM526 105l100 290h-224l-100 -290h224z" />
    <glyph glyph-name="slash" unicode="/" horiz-adv-x="410" 
d="M69 -250l-69 20l341 980l69 -20z" />
    <glyph glyph-name="backslash" unicode="\" horiz-adv-x="410" 
d="M341 -250l-341 980l69 20l341 -980z" />
    <glyph glyph-name="period.ss02" horiz-adv-x="220" 
d="M110 -20c-34 0 -60 26 -60 60s26 60 60 60s60 -26 60 -60s-26 -60 -60 -60z" />
    <glyph glyph-name="comma.ss02" horiz-adv-x="220" 
d="M40 -170l-10 40c62 13 90 55 90 111c-4 -1 -9 -1 -13 -1c-34 0 -57 24 -57 60c0 34 26 60 60 60c36 0 60 -31 60 -90c0 -100 -35 -151 -130 -180z" />
    <glyph glyph-name="colon.ss02" horiz-adv-x="220" 
d="M110 400c-34 0 -60 26 -60 60s26 60 60 60s60 -26 60 -60s-26 -60 -60 -60zM110 -20c-34 0 -60 26 -60 60s26 60 60 60s60 -26 60 -60s-26 -60 -60 -60z" />
    <glyph glyph-name="semicolon.ss02" horiz-adv-x="220" 
d="M110 400c-34 0 -60 26 -60 60s26 60 60 60s60 -26 60 -60s-26 -60 -60 -60zM40 -170l-10 40c62 23 90 65 90 111c-4 -1 -9 -1 -13 -1c-34 0 -57 24 -57 60c0 34 26 60 60 60c36 0 60 -31 60 -80c0 -95 -35 -151 -130 -190z" />
    <glyph glyph-name="exclam.ss02" horiz-adv-x="300" 
d="M120 220c-7 137 -13 273 -20 410v100h100v-100c-7 -137 -13 -273 -20 -410h-60zM150 -20c-34 0 -60 26 -60 60s26 60 60 60s60 -26 60 -60s-26 -60 -60 -60z" />
    <glyph glyph-name="question.ss02" horiz-adv-x="320" 
d="M100 220l-10 220h20c87 0 120 38 120 99c0 37 -19 68 -50 91h-150l-20 100l80 -5c136 -8 220 -83 220 -195c0 -92 -57 -161 -150 -180v-130h-60zM130 -20c-34 0 -60 26 -60 60s26 60 60 60s60 -26 60 -60s-26 -60 -60 -60z" />
    <glyph glyph-name="parenleft" unicode="(" horiz-adv-x="340" 
d="M300 -250c-155 105 -250 295 -250 500s95 395 250 500l30 -30c-117 -82 -190 -263 -190 -470s73 -388 190 -470z" />
    <glyph glyph-name="parenright" unicode=")" horiz-adv-x="340" 
d="M40 -250l-30 30c117 82 190 263 190 470s-73 388 -190 470l30 30c155 -105 250 -295 250 -500s-95 -395 -250 -500z" />
    <glyph glyph-name="braceleft" unicode="{" horiz-adv-x="330" 
d="M320 -250c-162 0 -203 52 -203 260c0 155 40 205 -67 225v40c107 20 67 70 67 225c0 208 41 250 203 250v-40c-123 0 -113 -59 -113 -210c0 -161 -1 -205 -57 -235v-20c56 -30 57 -74 57 -235c0 -151 -10 -220 113 -220v-40z" />
    <glyph glyph-name="braceright" unicode="}" horiz-adv-x="330" 
d="M10 -250v40c123 0 113 69 113 220c0 161 1 205 57 235v20c-56 30 -57 74 -57 235c0 151 10 210 -113 210v40c162 0 203 -42 203 -250c0 -155 -40 -205 67 -225v-40c-107 -20 -67 -70 -67 -225c0 -208 -41 -260 -203 -260z" />
    <glyph glyph-name="bracketleft" unicode="[" horiz-adv-x="330" 
d="M70 -250v1000h250v-50h-170v-900h170v-50h-250z" />
    <glyph glyph-name="bracketright" unicode="]" horiz-adv-x="330" 
d="M260 -250h-250v50h170v900h-170v50h250v-1000z" />
    <glyph glyph-name="hyphen" unicode="-" horiz-adv-x="440" 
d="M70 260v60h300v-60h-300z" />
    <glyph glyph-name="endash" unicode="&#x2013;" horiz-adv-x="680" 
d="M70 260v60h540v-60h-540z" />
    <glyph glyph-name="emdash" unicode="&#x2014;" horiz-adv-x="1050" 
d="M70 260v60h910v-60h-910z" />
    <glyph glyph-name="underscore" unicode="_" horiz-adv-x="600" 
d="M30 -100v60h540v-60h-540z" />
    <glyph glyph-name="quotesinglbase" unicode="&#x201a;" horiz-adv-x="211" 
d="M51 -161l-21 35c50 23 81 61 81 126h-60v110h110v-90c0 -91 -36 -145 -110 -181z" />
    <glyph glyph-name="quotedblbase" unicode="&#x201e;" horiz-adv-x="391" 
d="M51 -161l-21 35c50 23 81 61 81 126h-60v110h110v-90c0 -91 -36 -145 -110 -181zM231 -161l-21 35c50 23 81 61 81 126h-60v110h110v-90c0 -91 -36 -145 -110 -181z" />
    <glyph glyph-name="quotedblleft" unicode="&#x201c;" horiz-adv-x="391" 
d="M160 741l21 -35c-50 -23 -81 -61 -81 -126h60v-110h-110v90c0 91 36 145 110 181zM340 741l21 -35c-50 -23 -81 -61 -81 -126h60v-110h-110v90c0 91 36 145 110 181z" />
    <glyph glyph-name="quotedblright" unicode="&#x201d;" horiz-adv-x="391" 
d="M51 459l-21 35c50 23 81 61 81 126h-60v110h110v-90c0 -91 -36 -145 -110 -181zM231 459l-21 35c50 23 81 61 81 126h-60v110h110v-90c0 -91 -36 -145 -110 -181z" />
    <glyph glyph-name="quoteleft" unicode="&#x2018;" horiz-adv-x="191" 
d="M140 741l21 -35c-50 -23 -81 -61 -81 -126h60v-110h-110v90c0 91 36 145 110 181z" />
    <glyph glyph-name="quoteright" unicode="&#x2019;" horiz-adv-x="211" 
d="M51 459l-21 35c50 23 81 61 81 126h-60v110h110v-90c0 -91 -36 -145 -110 -181z" />
    <glyph glyph-name="guillemotleft" unicode="&#xab;" horiz-adv-x="440" 
d="M79 275l176 -163l-34 -37l-211 195v30l211 195l34 -37l-176 -163v-20zM234 275l176 -163l-34 -37l-211 195v30l211 195l34 -37l-176 -163v-20z" />
    <glyph glyph-name="guillemotright" unicode="&#xbb;" horiz-adv-x="440" 
d="M206 275v20l-176 163l34 37l211 -195v-30l-211 -195l-34 37zM361 275v20l-176 163l34 37l211 -195v-30l-211 -195l-34 37z" />
    <glyph glyph-name="guilsinglleft" unicode="&#x2039;" horiz-adv-x="285" 
d="M79 275l176 -163l-34 -37l-211 195v30l211 195l34 -37l-176 -163v-20z" />
    <glyph glyph-name="guilsinglright" unicode="&#x203a;" horiz-adv-x="285" 
d="M206 275v20l-176 163l34 37l211 -195v-30l-211 -195l-34 37z" />
    <glyph glyph-name="quotedbl" unicode="&#x22;" horiz-adv-x="310" 
d="M50 460c0 52 -6 105 -20 157v113h80v-113c-14 -52 -20 -105 -20 -157h-40zM200 460c0 52 -6 105 -20 157v113h80v-113c-14 -52 -20 -105 -20 -157h-40z" />
    <glyph glyph-name="quotesingle" unicode="'" horiz-adv-x="140" 
d="M50 460c0 52 -6 105 -20 157v113h80v-113c-14 -52 -20 -105 -20 -157h-40z" />
    <glyph glyph-name="quotesinglbase.ss02" horiz-adv-x="220" 
d="M40 -170l-10 40c62 13 90 55 90 111c-4 -1 -9 -1 -13 -1c-34 0 -57 24 -57 60c0 34 26 60 60 60c36 0 60 -31 60 -90c0 -100 -35 -151 -130 -180z" />
    <glyph glyph-name="quotedblbase.ss02" horiz-adv-x="400" 
d="M40 -170l-10 40c62 13 90 55 90 111c-4 -1 -9 -1 -13 -1c-34 0 -57 24 -57 60c0 34 26 60 60 60c36 0 60 -31 60 -90c0 -100 -35 -151 -130 -180zM220 -170l-10 40c62 13 90 55 90 111c-4 -1 -9 -1 -13 -1c-34 0 -57 24 -57 60c0 34 26 60 60 60c36 0 60 -31 60 -90
c0 -100 -35 -151 -130 -180z" />
    <glyph glyph-name="quotedblleft.ss02" horiz-adv-x="400" 
d="M180 750l10 -40c-62 -13 -90 -55 -90 -111c4 1 9 1 13 1c34 0 57 -24 57 -60c0 -34 -26 -60 -60 -60c-36 0 -60 31 -60 90c0 100 35 151 130 180zM360 750l10 -40c-62 -13 -90 -55 -90 -111c4 1 9 1 13 1c34 0 57 -24 57 -60c0 -34 -26 -60 -60 -60c-36 0 -60 31 -60 90
c0 100 35 151 130 180z" />
    <glyph glyph-name="quotedblright.ss02" horiz-adv-x="400" 
d="M40 480l-10 40c62 13 90 55 90 111c-4 -1 -9 -1 -13 -1c-34 0 -57 24 -57 60c0 34 26 60 60 60c36 0 60 -31 60 -90c0 -100 -35 -151 -130 -180zM220 480l-10 40c62 13 90 55 90 111c-4 -1 -9 -1 -13 -1c-34 0 -57 24 -57 60c0 34 26 60 60 60c36 0 60 -31 60 -90
c0 -100 -35 -151 -130 -180z" />
    <glyph glyph-name="quoteleft.ss02" horiz-adv-x="220" 
d="M180 750l10 -40c-62 -13 -90 -55 -90 -111c4 1 9 1 13 1c34 0 57 -24 57 -60c0 -34 -26 -60 -60 -60c-36 0 -60 31 -60 90c0 100 35 151 130 180z" />
    <glyph glyph-name="quoteright.ss02" horiz-adv-x="220" 
d="M40 480l-10 40c62 13 90 55 90 111c-4 -1 -9 -1 -13 -1c-34 0 -57 24 -57 60c0 34 26 60 60 60c36 0 60 -31 60 -90c0 -100 -35 -151 -130 -180z" />
    <glyph glyph-name="cent" unicode="&#xa2;" horiz-adv-x="560" 
d="M510 335c-21 -129 -80 -214 -185 -235v-240h-50v235h-3c-141 0 -222 94 -222 260c0 171 86 276 225 280v235h50v-238c37 -6 65 -17 105 -17h30l20 -210h-40c-14 110 -47 176 -115 188v-446c78 14 130 91 145 198zM150 367c0 -123 45 -206 125 -220v445
c-79 -15 -125 -101 -125 -225z" />
    <glyph glyph-name="dollar" unicode="$" horiz-adv-x="659" 
d="M609 200c0 -130 -93 -213 -254 -220v-120h-50v121c-70 3 -121 19 -205 19h-20l-30 300h30c31 -179 98 -263 225 -274v313l-7 3c-108 41 -218 84 -218 208s88 200 225 200v120h50v-123c45 -6 86 -17 155 -17h20l30 -250h-30c-26 125 -84 201 -175 220v-279l22 -9
c114 -44 232 -91 232 -212zM170 588c0 -74 60 -114 135 -147v264c-82 0 -135 -48 -135 -117zM355 26c89 7 145 60 145 137c0 83 -66 123 -145 157v-294z" />
    <glyph glyph-name="Euro" unicode="&#x20ac;" horiz-adv-x="778" 
d="M688 280h40l-40 -280h-20c-91 0 -123 -20 -207 -20c-207 0 -287 120 -301 317h-95v50h93v18c0 11 0 22 1 32h-67v50h70c18 187 103 303 301 303c82 0 121 -20 185 -20h20l40 -210h-40c-34 109 -54 185 -188 185c-142 0 -189 -99 -200 -258h248v-50h-250v-32v-18h220v-50
h-218c8 -169 54 -272 197 -272c149 0 172 73 211 255z" />
    <glyph glyph-name="sterling" unicode="&#xa3;" horiz-adv-x="678" 
d="M578 210h50l-30 -180c-32 -31 -101 -50 -170 -50c-81 0 -160 52 -219 52c-44 0 -80 -14 -109 -32l-50 80c68 39 109 122 109 256v16h-109v50h108c-3 198 -9 348 196 348c82 0 120 -20 210 -20h20l20 -220h-40c-25 124 -55 195 -167 195c-146 0 -118 -124 -118 -303h247
v-50h-248c-10 -163 -69 -220 -139 -267l9 -15c76 19 128 30 200 30c93 0 125 -50 190 -50z" />
    <glyph glyph-name="yen" unicode="&#xa5;" horiz-adv-x="820" 
d="M50 730h720v-40h-68l-200 -330h173v-50h-203l-12 -20v-30h215v-50h-215v-150l20 -20h80v-40h-300v40h80l20 20v150h-215v50h215v30l-11 20h-204v50h176l-171 310l-20 20h-80v40zM440 360l190 310l-20 20h-330l-20 -20l170 -310h10z" />
    <glyph glyph-name="plus" unicode="+" horiz-adv-x="400" 
d="M350 345v-60h-121v-120h-60v120h-119v60h119v120h60v-120h121z" />
    <glyph glyph-name="minus" unicode="&#x2212;" horiz-adv-x="400" 
d="M50 285v60h300v-60h-300z" />
    <glyph glyph-name="multiply" unicode="&#xd7;" horiz-adv-x="355" 
d="M305 385l-85 -85l84 -85l-42 -43l-85 85l-84 -84l-43 42l85 84l-85 85l42 43l85 -85l86 85z" />
    <glyph glyph-name="divide" unicode="&#xf7;" horiz-adv-x="400" 
d="M165 405v70h70v-70h-70zM50 285v60h300v-60h-300zM165 155v70h70v-70h-70z" />
    <glyph glyph-name="equal" unicode="=" horiz-adv-x="400" 
d="M50 355v60h300v-60h-300zM50 215v60h300v-60h-300z" />
    <glyph glyph-name="notequal" unicode="&#x2260;" horiz-adv-x="400" 
d="M350 355h-109l-29 -80h138v-60h-160l-39 -108l-49 10l36 98h-88v60h110l29 80h-139v60h161l38 105l49 -10l-35 -95h87v-60z" />
    <glyph glyph-name="greater" unicode="&#x3e;" horiz-adv-x="400" 
d="M50 420l300 -50v-110l-300 -50v61l250 39v10l-250 39v61z" />
    <glyph glyph-name="less" unicode="&#x3c;" horiz-adv-x="400" 
d="M100 320v-10l250 -39v-61l-300 50v110l300 50v-61z" />
    <glyph glyph-name="greaterequal" unicode="&#x2265;" horiz-adv-x="400" 
d="M50 440l300 -50v-110l-300 -50v61l250 39v10l-250 39v61zM50 150v60h300v-60h-300z" />
    <glyph glyph-name="lessequal" unicode="&#x2264;" horiz-adv-x="400" 
d="M100 340v-10l250 -39v-61l-300 50v110l300 50v-61zM50 150v60h300v-60h-300z" />
    <glyph glyph-name="plusminus" unicode="&#xb1;" horiz-adv-x="400" 
d="M229 395h121v-60h-121v-120h-60v120h-119v60h119v120h60v-120zM50 115v60h300v-60h-300z" />
    <glyph glyph-name="approxequal" unicode="&#x2248;" horiz-adv-x="499" 
d="M50 334c16 47 58 121 128 121c44 0 71 -18 99 -36c28 -17 57 -35 104 -35l48 71l20 -10c-16 -47 -58 -121 -128 -121c-44 0 -71 17 -98 35c-28 18 -57 36 -105 36l-48 -71zM50 174c16 47 58 121 128 121c44 0 71 -18 99 -36c28 -17 57 -35 104 -35l48 71l20 -10
c-16 -47 -58 -121 -128 -121c-44 0 -71 17 -98 35c-28 18 -57 36 -105 36l-48 -71z" />
    <glyph glyph-name="asciitilde" unicode="~" horiz-adv-x="499" 
d="M50 254c16 47 58 121 128 121c44 0 71 -18 99 -36c28 -17 57 -35 104 -35l48 71l20 -10c-16 -47 -58 -121 -128 -121c-44 0 -71 17 -98 35c-28 18 -57 36 -105 36l-48 -71z" />
    <glyph glyph-name="logicalnot" unicode="&#xac;" horiz-adv-x="420" 
d="M370 375v-180h-60v120h-260v60h320z" />
    <glyph glyph-name="asciicircum" unicode="^" horiz-adv-x="390" 
d="M240 750l100 -300h-61l-79 250h-10l-79 -250h-61l100 300h90z" />
    <glyph glyph-name="emptyset" unicode="&#x2205;" horiz-adv-x="760" 
d="M522 609c112 -52 188 -164 188 -293c0 -190 -146 -336 -330 -336c-25 0 -50 3 -74 8l-62 -178l-69 20l63 181c-112 53 -188 168 -188 305c0 178 146 324 330 324c26 0 50 -3 74 -8l62 178l69 -20zM110 316c0 -109 60 -202 148 -247l176 506c-17 3 -35 5 -54 5
c-149 0 -270 -121 -270 -264zM380 40c150 0 270 121 270 276c0 101 -60 191 -148 235l-176 -506c17 -3 35 -5 54 -5z" />
    <glyph glyph-name="percent" unicode="%" horiz-adv-x="869" 
d="M544 873l95 -28l-341 -980l-69 20l324 933l-13 4c-68 -79 -157 -105 -244 -105v-9c33 -36 51 -93 51 -166c0 -129 -57 -208 -151 -208s-151 79 -151 208s57 208 151 208h7c197 0 256 27 341 123zM196 381c58 0 82 53 82 161c0 110 -23 161 -82 161s-81 -50 -82 -161
c-1 -108 24 -161 82 -161zM662 396c94 0 151 -79 151 -208s-57 -208 -151 -208s-151 79 -151 208s57 208 151 208zM662 27c58 0 82 52 82 161c0 110 -23 161 -82 161s-82 -50 -82 -161c0 -109 24 -161 82 -161z" />
    <glyph glyph-name="perthousand" unicode="&#x2030;" horiz-adv-x="1230" 
d="M544 873l95 -28l-341 -980l-69 20l324 933l-13 4c-68 -79 -157 -105 -244 -105v-9c33 -36 51 -93 51 -166c0 -129 -57 -208 -151 -208s-151 79 -151 208s57 208 151 208h7c197 0 256 27 341 123zM196 381c58 0 82 53 82 161c0 110 -23 161 -82 161s-81 -50 -82 -161
c-1 -108 24 -161 82 -161zM662 396c94 0 151 -79 151 -208s-57 -208 -151 -208s-151 79 -151 208s57 208 151 208zM1023 396c94 0 151 -79 151 -208s-57 -208 -151 -208s-151 79 -151 208s57 208 151 208zM662 27c58 0 82 52 82 161c0 110 -23 161 -82 161s-82 -50 -82 -161
c0 -109 24 -161 82 -161zM1023 27c58 0 92 53 92 161c0 111 -33 161 -92 161s-91 -49 -92 -161c0 -108 34 -161 92 -161z" />
    <glyph glyph-name="arrowup" unicode="&#x2191;" horiz-adv-x="520" 
d="M235 71v409h-10l-138 -156l-37 34l195 211h30l195 -211l-37 -34l-138 156h-10v-409h-50z" />
    <glyph glyph-name="uni2197" unicode="&#x2197;" horiz-adv-x="480" 
d="M85 129l-35 36l289 289l-7 7l-208 -13l-2 51l287 11l21 -21l-11 -287l-50 2l13 208l-7 7z" />
    <glyph glyph-name="arrowright" unicode="&#x2192;" horiz-adv-x="598" 
d="M50 290v50h409v10l-156 138l34 37l211 -195v-30l-211 -195l-34 37l156 138v10h-409z" />
    <glyph glyph-name="uni2198" unicode="&#x2198;" horiz-adv-x="480" 
d="M85 507l290 -290l7 7l-13 208l50 2l11 -287l-21 -21l-287 11l2 51l208 -13l7 7l-289 289z" />
    <glyph glyph-name="arrowdown" unicode="&#x2193;" horiz-adv-x="520" 
d="M235 569h50v-409h10l138 156l37 -34l-195 -211h-30l-195 211l37 34l138 -156h10v409z" />
    <glyph glyph-name="uni2199" unicode="&#x2199;" horiz-adv-x="480" 
d="M395 507l35 -36l-289 -289l7 -7l208 13l2 -51l-287 -11l-21 21l11 287l50 -2l-13 -208l7 -7z" />
    <glyph glyph-name="arrowleft" unicode="&#x2190;" horiz-adv-x="598" 
d="M548 290h-409v-10l156 -138l-34 -37l-211 195v30l211 195l34 -37l-156 -138v-10h409v-50z" />
    <glyph glyph-name="uni2196" unicode="&#x2196;" horiz-adv-x="480" 
d="M395 129l-290 290l-7 -7l13 -208l-50 -2l-11 287l21 21l287 -11l-2 -51l-208 13l-7 -7l289 -289z" />
    <glyph glyph-name="arrowboth" unicode="&#x2194;" horiz-adv-x="798" 
d="M537 525l211 -195v-30l-211 -195l-34 37l156 138v10h-520v-10l156 -138l-34 -37l-211 195v30l211 195l34 -37l-156 -138v-10h520v10l-156 138z" />
    <glyph glyph-name="arrowupdn" unicode="&#x2195;" horiz-adv-x="520" 
d="M295 56l138 156l37 -34l-195 -211h-30l-195 211l37 34l138 -156h10v520h-10l-138 -156l-37 34l195 211h30l195 -211l-37 -34l-138 156h-10v-520h10z" />
    <glyph glyph-name="lozenge" unicode="&#x25ca;" horiz-adv-x="390" 
d="M240 600l100 -300l-100 -300h-90l-100 300l100 300h90zM200 50l79 250l-79 250h-10l-79 -250l79 -250h10z" />
    <glyph glyph-name="at" unicode="@" horiz-adv-x="950" 
d="M464 -210c-247 0 -404 169 -404 440c0 280 168 460 430 460c249 0 400 -162 400 -428c0 -178 -67 -282 -185 -282c-75 0 -115 42 -115 110h-10c-30 -72 -86 -110 -166 -110c-91 0 -154 50 -154 123c0 72 60 131 170 167l150 50v40c0 68 -40 110 -107 110
c-56 0 -93 -30 -88 -80l5 -50l-100 -40v70c0 93 76 150 191 150c118 0 189 -61 189 -160v-280c0 -31 17 -50 50 -50c72 0 120 88 120 232c0 237 -130 378 -350 378c-234 0 -380 -159 -380 -412c0 -243 134 -388 361 -388c75 0 163 16 231 47l18 -47
c-72 -31 -173 -50 -256 -50zM437 40c78 0 143 86 143 190v40c-155 -41 -220 -99 -220 -159c0 -42 32 -71 77 -71z" />
    <glyph glyph-name="ampersand" unicode="&#x26;" horiz-adv-x="820" 
d="M760 100l30 -10c-15 -75 -75 -110 -149 -110c-97 0 -140 55 -183 115c-47 -61 -106 -115 -218 -115c-130 0 -210 73 -210 193c0 121 81 200 215 215c-54 74 -84 120 -84 191c0 106 69 171 180 171c110 0 175 -63 175 -172c0 -45 -11 -85 -32 -118h296v-40h-85l-177 -240
c48 -65 89 -140 162 -140c39 0 65 26 80 60zM334 700c-51 0 -84 -38 -84 -96c0 -50 25 -100 88 -185l6 -8c52 9 83 68 83 151c0 87 -34 138 -93 138zM487 221l133 179l-20 20h-152c-22 -18 -49 -32 -81 -39zM265 30c63 0 114 41 163 107l-155 213c-83 -4 -133 -66 -133 -164
c0 -97 49 -156 125 -156z" />
    <glyph glyph-name="paragraph" unicode="&#xb6;" horiz-adv-x="627" 
d="M577 730v-40h-80l-20 -20v-770h-50v790h-80v-790h-50v409c-166 0 -247 95 -247 211c0 115 81 210 247 210h280z" />
    <glyph glyph-name="section" unicode="&#xa7;" horiz-adv-x="490" 
d="M353 207c49 -28 87 -65 87 -126c0 -83 -71 -144 -171 -144c-58 0 -106 20 -189 20h-10l-20 220h30c17 -114 76 -200 172 -200c62 0 98 38 98 81c0 61 -72 87 -143 120c-69 32 -137 81 -137 173c0 56 16 108 74 125v9c-43 29 -74 65 -74 123c0 83 63 142 150 142
c51 0 87 -20 160 -20h10l20 -180h-30c-18 92 -66 160 -142 160c-55 0 -88 -37 -88 -79c0 -57 61 -84 127 -114c78 -34 163 -72 163 -176c0 -56 -29 -108 -87 -125v-9zM120 379c0 -78 90 -106 157 -135s103 23 103 66c0 72 -102 108 -165 137c-1 0 -2 1 -3 1
c-62 28 -92 -20 -92 -69z" />
    <glyph glyph-name="copyright" unicode="&#xa9;" horiz-adv-x="980" 
d="M490 -210c-251 0 -430 189 -430 458c0 253 179 442 430 442s430 -189 430 -442c0 -269 -179 -458 -430 -458zM490 -160c223 0 380 169 380 408c0 224 -157 392 -380 392c-221 0 -380 -168 -380 -392c0 -239 159 -408 380 -408zM480 -27c-141 0 -222 94 -222 260
c0 174 89 280 233 280c62 0 94 -20 147 -20h30l20 -210h-40c-15 122 -54 190 -138 190c-96 0 -152 -91 -152 -228c0 -135 54 -222 149 -222c92 0 154 82 171 200l40 -10c-24 -149 -100 -240 -238 -240z" />
    <glyph glyph-name="registered" unicode="&#xae;" horiz-adv-x="680" 
d="M340 210c-156 0 -280 118 -280 285c0 157 124 275 280 275s280 -118 280 -275c0 -167 -124 -285 -280 -285zM340 256c132 0 234 98 234 240c0 130 -102 228 -234 228c-131 0 -234 -98 -234 -228c0 -142 103 -240 234 -240zM191 343v26h32l8 8v224l-8 8h-32v26h158
c68 0 110 -29 110 -76c0 -40 -29 -68 -83 -74l75 -116l37 -4v-22h-297zM281 513h58c41 0 66 11 66 46c0 34 -25 46 -66 46h-50l-8 -8v-84zM289 369h103l-70 114h-41v-106z" />
    <glyph glyph-name="trademark" unicode="&#x2122;" horiz-adv-x="821" 
d="M94 458v26h76l8 8v220l-8 8h-83l-20 -64h-17l4 94h302l4 -94h-17l-20 64h-83l-8 -8v-220l8 -8h163l8 8v224l-8 8h-22v26h92l96 -178h4l93 178h105v-26h-32l-8 -8v-224l8 -8h32v-26h-677zM453 484h220l8 8v218h-4l-112 -212h-8l-108 198h-4v-204z" />
    <glyph glyph-name="degree" unicode="&#xb0;" horiz-adv-x="280" 
d="M140 550c-61 0 -110 49 -110 111c0 60 49 109 110 109s110 -49 110 -109c0 -62 -49 -111 -110 -111zM140 590c39 0 70 31 70 71c0 38 -31 69 -70 69s-70 -31 -70 -69c0 -40 31 -71 70 -71z" />
    <glyph glyph-name="bar" unicode="|" horiz-adv-x="150" 
d="M50 870h50v-1010h-50v1010z" />
    <glyph glyph-name="brokenbar" unicode="&#xa6;" horiz-adv-x="150" 
d="M50 870h50v-400h-50v400zM50 260h50v-400h-50v400z" />
    <glyph glyph-name="dagger" unicode="&#x2020;" horiz-adv-x="500" 
d="M400 545l50 -60l-50 -60l-35 35h-90v-90l35 -35c-35 -112 -50 -223 -50 -350h-20c0 127 -15 238 -50 350l35 35v90h-90l-35 -35l-50 60l50 60l35 -35h90v90l-35 35l60 50l60 -50l-35 -35v-90h90z" />
    <glyph glyph-name="daggerdbl" unicode="&#x2021;" horiz-adv-x="500" 
d="M50 185l50 60l35 -35h90v60c0 42 -23 53 -35 65c12 12 35 23 35 65v60h-90l-35 -35l-50 60l50 60l35 -35h90v90l-35 35l60 50l60 -50l-35 -35v-90h90l35 35l50 -60l-50 -60l-35 35h-90v-60c0 -42 23 -53 35 -65c-12 -12 -35 -23 -35 -65v-60h90l35 35l50 -60l-50 -60
l-35 35h-90v-90l35 -35l-60 -50l-60 50l35 35v90h-90l-35 -35z" />
    <glyph glyph-name="uni0308" unicode="&#x308;" horiz-adv-x="0" 
d="M-330 630v120h120v-120h-120zM-150 630v120h120v-120h-120z" />
    <glyph glyph-name="uni0307" unicode="&#x307;" horiz-adv-x="0" 
d="M-150 630v120h120v-120h-120z" />
    <glyph glyph-name="gravecomb" unicode="&#x300;" horiz-adv-x="0" 
d="M-260 670v80h80l147 -172l-17 -18z" />
    <glyph glyph-name="acutecomb" unicode="&#x301;" horiz-adv-x="0" 
d="M-30 670l-210 -110l-17 18l147 172h80v-80z" />
    <glyph glyph-name="uni030B" unicode="&#x30b;" horiz-adv-x="0" 
d="M-210 670l-150 -130l-20 15l90 195h80v-80zM-30 670l-150 -130l-20 15l90 195h80v-80z" />
    <glyph glyph-name="uni0302" unicode="&#x302;" horiz-adv-x="0" 
d="M-145 749l135 -172l-20 -17l-160 119l-160 -119l-20 17l135 172h90z" />
    <glyph glyph-name="uni030C" unicode="&#x30c;" horiz-adv-x="0" 
d="M-30 750l20 -17l-135 -172h-90l-135 172l20 17l160 -119z" />
    <glyph glyph-name="uni0306" unicode="&#x306;" horiz-adv-x="0" 
d="M-330 730c0 -43 29 -81 140 -81s140 38 140 81h20c0 -105 -49 -161 -160 -161s-160 56 -160 161h20z" />
    <glyph glyph-name="uni030A" unicode="&#x30a;" horiz-adv-x="0" 
d="M-140 550c-61 0 -110 49 -110 111c0 60 49 109 110 109s110 -49 110 -109c0 -62 -49 -111 -110 -111zM-140 590c39 0 70 31 70 71c0 38 -31 69 -70 69s-70 -31 -70 -69c0 -40 31 -71 70 -71z" />
    <glyph glyph-name="tildecomb" unicode="&#x303;" horiz-adv-x="0" 
d="M-429 609c16 47 58 121 128 121c44 0 71 -18 99 -36c28 -17 57 -35 104 -35l48 71l20 -10c-16 -47 -58 -121 -128 -121c-44 0 -71 17 -98 35c-28 18 -57 36 -105 36l-48 -71z" />
    <glyph glyph-name="uni0304" unicode="&#x304;" horiz-adv-x="0" 
d="M-350 610v80h320v-80h-320z" />
    <glyph glyph-name="uni0312" unicode="&#x312;" horiz-adv-x="0" 
d="M-51 820l21 -35c-50 -23 -81 -60 -81 -115h60v-110h-110v90c0 91 36 134 110 170z" />
    <glyph glyph-name="uni0326" unicode="&#x326;" horiz-adv-x="0" 
d="M-150 -280l-11 35c50 13 81 40 81 95h-60v90h110v-70c0 -91 -36 -124 -120 -150z" />
    <glyph glyph-name="uni0327" unicode="&#x327;" horiz-adv-x="0" 
d="M-210 0h30l-10 -50l10 -10c53 0 140 12 140 -76c0 -61 -59 -94 -180 -94h-71l10 50h146c13 9 25 30 25 45c0 37 -33 35 -110 35l-17 20z" />
    <glyph glyph-name="uni0328" unicode="&#x328;" horiz-adv-x="0" 
d="M-141 0c-36 -37 -55 -60 -55 -108s26 -82 66 -82c39 0 63 19 80 46l20 -20c-10 -29 -39 -96 -132 -96c-94 0 -130 84 -109 169l100 91h30z" />
    <glyph glyph-name="acute" unicode="&#xb4;" horiz-adv-x="290" 
d="M260 670l-210 -110l-17 18l147 172h80v-80z" />
    <glyph glyph-name="breve" unicode="&#x2d8;" horiz-adv-x="380" 
d="M50 730c0 -43 29 -81 140 -81s140 38 140 81h20c0 -105 -49 -161 -160 -161s-160 56 -160 161h20z" />
    <glyph glyph-name="caron" unicode="&#x2c7;" horiz-adv-x="400" 
d="M370 750l20 -17l-135 -172h-90l-135 172l20 17l160 -119z" />
    <glyph glyph-name="cedilla" unicode="&#xb8;" horiz-adv-x="311" 
d="M111 0h30l-10 -50l10 -10c53 0 140 12 140 -76c0 -61 -59 -94 -180 -94h-71l10 50h146c13 9 25 30 25 45c0 37 -33 35 -110 35l-17 20z" />
    <glyph glyph-name="circumflex" unicode="&#x2c6;" horiz-adv-x="420" 
d="M255 749l135 -172l-20 -17l-160 119l-160 -119l-20 17l135 172h90z" />
    <glyph glyph-name="dieresis" unicode="&#xa8;" horiz-adv-x="360" 
d="M30 630v120h120v-120h-120zM210 630v120h120v-120h-120z" />
    <glyph glyph-name="dotaccent" unicode="&#x2d9;" horiz-adv-x="180" 
d="M30 630v120h120v-120h-120z" />
    <glyph glyph-name="grave" unicode="`" horiz-adv-x="290" 
d="M30 670v80h80l147 -172l-17 -18z" />
    <glyph glyph-name="hungarumlaut" unicode="&#x2dd;" horiz-adv-x="410" 
d="M200 670l-150 -130l-20 15l90 195h80v-80zM380 670l-150 -130l-20 15l90 195h80v-80z" />
    <glyph glyph-name="macron" unicode="&#xaf;" horiz-adv-x="380" 
d="M30 650v80h320v-80h-320z" />
    <glyph glyph-name="ogonek" unicode="&#x2db;" horiz-adv-x="307" 
d="M166 0c-36 -37 -55 -60 -55 -108s26 -82 66 -82c39 0 63 19 80 46l20 -20c-10 -29 -39 -96 -132 -96c-94 0 -130 84 -109 169l100 91h30z" />
    <glyph glyph-name="ring" unicode="&#x2da;" horiz-adv-x="280" 
d="M140 550c-61 0 -110 49 -110 111c0 60 49 109 110 109s110 -49 110 -109c0 -62 -49 -111 -110 -111zM140 590c39 0 70 31 70 71c0 38 -31 69 -70 69s-70 -31 -70 -69c0 -40 31 -71 70 -71z" />
    <glyph glyph-name="tilde" unicode="&#x2dc;" horiz-adv-x="459" 
d="M30 609c16 47 58 121 128 121c44 0 71 -18 99 -36c28 -17 57 -35 104 -35l48 71l20 -10c-16 -47 -58 -121 -128 -121c-44 0 -71 17 -98 35c-28 18 -57 36 -105 36l-48 -71z" />
    </font>
</defs>
</svg>
